<svg width="210" height="210" viewBox="0 0 210 210" fill="none" xmlns="http://www.w3.org/2000/svg">
<rect width="210" height="210" rx="14" fill="white"/>
<path d="M88.1977 139.124C91.3659 129.394 96.5733 112.904 98.0556 105.956C98.0619 105.927 98.0792 105.903 98.1045 105.887C104.564 101.87 111.55 99.6843 113.9 99.2481C113.929 99.2429 113.956 99.2501 113.98 99.2667C119.965 103.451 123.668 106.008 125.957 108.185C131.777 113.721 132.885 124.338 132.783 131.248C132.783 131.287 132.762 131.322 132.728 131.341L130.328 132.666C130.269 132.699 130.196 132.671 130.172 132.608C128.213 127.344 124.56 123.189 122.17 115.638C122.172 115.699 122.119 115.753 122.055 115.752C115.561 115.586 115.3 115.212 109.439 113.421C105.942 124.575 95.9557 135.582 91.0018 140.316C90.9705 140.346 90.9262 140.353 90.8863 140.337L88.2607 139.257C88.2078 139.235 88.18 139.178 88.1977 139.124Z" fill="black"/>
<path d="M105.855 74.6764C106.402 73.8562 112.348 71.6696 110.144 63.9388C112.065 63.0827 112.383 61.0405 110.618 61.0413C108.696 60.9548 108.136 59.4304 108.019 58.4344C107.944 57.092 107.422 55.8865 107.211 55.6813" stroke="black" stroke-linecap="round"/>
<path d="M107.341 62.0167C107.594 61.9037 107.663 61.504 107.493 61.1239C107.324 60.7438 106.981 60.5272 106.727 60.6402C106.474 60.7531 106.406 61.1529 106.575 61.533C106.745 61.9131 107.088 62.1297 107.341 62.0167Z" fill="black"/>
<path d="M105.101 60.2145C105.263 59.7273 105.857 58.85 106.941 59.2385" stroke="black" stroke-linecap="round"/>
<path d="M105.986 67.8425C106.986 68.4743 107.747 68.4345 108.729 67.2786" stroke="black" stroke-linecap="round"/>
<path d="M98.2871 63.7308C98.2884 64.0912 98.4859 64.8199 99.2647 64.8518" stroke="black" stroke-linecap="round"/>
<path d="M90.1573 63.763C91.2842 68.1703 95.0168 70.1613 97.7843 71.7387C99.1372 69.9382 101.024 66.2683 99.7776 66.5392C98.4675 66.8238 95.7209 64.1566 96.4194 62.633C97.2391 60.8453 99.2708 62.0452 100.118 63.274L100.341 60.8845C99.4256 59.7062 98.2394 57.4461 100.821 57.8314C103.404 58.2167 106.159 56.5374 107.214 55.6497C108.811 52.85 110.682 47.1727 105.388 46.8609C100.984 46.6016 97.4792 51.102 95.6557 54.536C93.523 54.9088 88.6209 57.7538 90.1573 63.763Z" fill="black"/>
<path d="M97.791 71.4054C99.1265 72.0449 99.9488 72.7078 100.714 74.5124" stroke="black" stroke-linecap="round"/>
<path d="M99.1043 87.4828C99.5182 90.3981 99.7757 98.1529 97.5512 106.096C97.5231 106.196 97.6369 106.279 97.7223 106.219C100.103 104.552 106.321 101.058 114.323 98.9908C114.376 98.977 114.411 98.9285 114.405 98.8739C113.885 94.4724 113.605 85.2197 116.145 82.7996C116.159 82.7863 116.175 82.7778 116.194 82.7736C121.433 81.5641 132.55 77.7111 135.791 71.6922C135.796 71.6833 135.799 71.6741 135.801 71.6641C136.034 70.576 136.194 68.3539 135.014 67.9713C134.991 67.9638 134.966 67.9651 134.943 67.9743C127.205 71.1033 118.581 73.695 107.496 75.6607" stroke="black" stroke-linecap="round"/>
<path d="M99.1043 91.2016C93.8108 96.9764 88.885 99.1756 85.1299 100.816C82.5066 102.154 76.8178 103.113 79.3629 98.9669C90.3 85.3175 92.7062 82.9441 95.2764 80.5926C96.7525 79.2421 97.4091 78.4052 101.128 77.4209" stroke="black" stroke-linecap="round"/>
<path d="M83.7923 143.262C83.5736 141.84 87.8209 139.762 88.5501 139.379L90.7922 140.254C90.6172 141.348 90.063 141.986 89.8078 142.168L83.7923 143.262Z" stroke="black"/>
<path d="M131.368 134.512C130.493 134.337 130.457 133.09 130.548 132.489L132.516 131.505C133.118 131.669 134.726 132.095 136.344 132.489C137.963 132.883 137.747 133.419 137.438 133.637L131.368 134.512Z" stroke="black"/>
<path d="M120.007 145.121C120.007 148.897 116.947 151.957 113.172 151.957C109.396 151.957 106.336 148.897 106.336 145.121C106.336 141.346 109.396 138.286 113.172 138.286C116.947 138.286 120.007 141.346 120.007 145.121Z" fill="black"/>
<path d="M73.1826 145.942L153.023 131.286" stroke="black" stroke-linecap="round"/>
<path d="M143.289 54.0156H138.695C138.242 54.0156 137.875 54.3829 137.875 54.8359V58.2264C137.875 58.6794 138.242 59.0467 138.695 59.0467H143.289C143.742 59.0467 144.109 58.6794 144.109 58.2264V54.8359C144.109 54.3829 143.742 54.0156 143.289 54.0156Z" fill="#933BEB"/>
<path d="M151.055 52.7031H147.992C147.539 52.7031 147.172 53.0704 147.172 53.5234V57.8982C147.172 58.3513 147.539 58.7185 147.992 58.7185H151.055C151.508 58.7185 151.875 58.3513 151.875 57.8982V53.5234C151.875 53.0704 151.508 52.7031 151.055 52.7031Z" stroke="#933BEB"/>
<path d="M158.82 49.9686H155.867C155.414 49.9686 155.047 50.3359 155.047 50.7889V57.898C155.047 58.351 155.414 58.7183 155.867 58.7183H158.82C159.273 58.7183 159.64 58.351 159.64 57.898V50.7889C159.64 50.3359 159.273 49.9686 158.82 49.9686Z" stroke="#933BEB"/>
<path d="M166.805 47.1798H163.742C163.138 47.1798 162.648 47.6695 162.648 48.2735V57.8981C162.648 58.5022 163.138 58.9918 163.742 58.9918H166.805C167.409 58.9918 167.898 58.5022 167.898 57.8981V48.2735C167.898 47.6695 167.409 47.1798 166.805 47.1798Z" fill="black"/>
<path d="M174.897 52.2656H171.944C171.491 52.2656 171.124 52.6329 171.124 53.0859V57.8982C171.124 58.3512 171.491 58.7185 171.944 58.7185H174.897C175.35 58.7185 175.718 58.3512 175.718 57.8982V53.0859C175.718 52.6329 175.35 52.2656 174.897 52.2656Z" stroke="#933BEB"/>
<path d="M183.1 54.9998H180.038C179.585 54.9998 179.218 55.367 179.218 55.82V57.8981C179.218 58.3511 179.585 58.7184 180.038 58.7184H183.1C183.553 58.7184 183.921 58.3511 183.921 57.8981V55.82C183.921 55.367 183.553 54.9998 183.1 54.9998Z" stroke="#933BEB"/>
<path d="M165.329 45.6765C165.241 45.7772 165.086 45.7772 164.998 45.6765L164.056 44.5887C163.933 44.447 164.034 44.2267 164.221 44.2267H166.106C166.293 44.2267 166.394 44.447 166.272 44.5887L165.329 45.6765Z" fill="black"/>
<path d="M170.632 36.7896H160.023C159.419 36.7896 158.93 37.2792 158.93 37.8833V43.7893C158.93 44.3933 159.419 44.883 160.023 44.883H170.632C171.236 44.883 171.726 44.3933 171.726 43.7893V37.8833C171.726 37.2792 171.236 36.7896 170.632 36.7896Z" fill="black"/>
<path d="M169.867 40.5082H162.867C162.626 40.5082 162.43 40.704 162.43 40.9457C162.43 41.1873 162.626 41.3831 162.867 41.3831H169.867C170.109 41.3831 170.304 41.1873 170.304 40.9457C170.304 40.704 170.109 40.5082 169.867 40.5082Z" fill="white"/>
<path d="M161.117 40.9457C161.117 40.7645 160.97 40.6176 160.789 40.6176C160.608 40.6176 160.461 40.7645 160.461 40.9457C160.461 41.1269 160.608 41.2738 160.789 41.2738C160.97 41.2738 161.117 41.1269 161.117 40.9457Z" stroke="white"/>
<path d="M165.711 42.5862H162.867C162.626 42.5862 162.43 42.782 162.43 43.0237C162.43 43.2653 162.626 43.4611 162.867 43.4611H165.711C165.952 43.4611 166.148 43.2653 166.148 43.0237C166.148 42.782 165.952 42.5862 165.711 42.5862Z" fill="white"/>
<path d="M163.632 38.3207H160.788C160.546 38.3207 160.351 38.5165 160.351 38.7582C160.351 38.9998 160.546 39.1956 160.788 39.1956H163.632C163.873 39.1956 164.069 38.9998 164.069 38.7582C164.069 38.5165 163.873 38.3207 163.632 38.3207Z" fill="white"/>
<path d="M161.226 43.0237C161.226 42.782 161.03 42.5862 160.788 42.5862C160.546 42.5862 160.351 42.782 160.351 43.0237C160.351 43.2653 160.546 43.4611 160.788 43.4611C161.03 43.4611 161.226 43.2653 161.226 43.0237Z" fill="white"/>
<path d="M41.4613 121.548C43.1802 120.664 45.1408 120.367 47.0445 120.701C48.9481 121.035 50.6902 121.983 52.0052 123.399C53.3201 124.816 54.1357 126.624 54.3276 128.547C54.5195 130.47 54.0772 132.403 53.0681 134.052C52.0591 135.7 50.5386 136.973 48.7385 137.677C46.9385 138.381 44.9576 138.477 43.098 137.95C41.2384 137.423 39.6021 136.303 38.4385 134.76C37.275 133.216 36.6481 131.335 36.6534 129.402L45.5124 129.426L41.4613 121.548Z" stroke="black"/>
<path d="M35.0127 128.442C35.0127 126.842 35.4568 125.274 36.2957 123.912C37.1346 122.549 38.3353 121.447 39.7639 120.727L43.653 128.442H35.0127Z" fill="black"/>
<path d="M144.91 67.8623C145.034 68.1527 145.08 68.7944 144.364 69.1835C144.311 69.2124 144.253 69.2398 144.192 69.2656C143.296 69.6398 143.073 69.0246 143.073 68.6702V68.3092" stroke="black" stroke-linecap="round"/>
<path d="M144.795 66.9692C145.035 67.1144 145.364 67.4828 144.91 67.8623C144.877 67.8906 144.838 67.9189 144.795 67.9473C144.271 68.2924 143.526 68.3377 143.074 68.3091C142.991 68.3039 142.919 68.2962 142.859 68.2875C142.615 68.2193 142.222 67.9547 142.601 67.4412" stroke="black" stroke-linecap="round"/>
<path d="M144.622 65.906C144.866 65.9627 145.285 66.1867 145.01 66.6289C144.734 67.0711 143.346 67.3518 142.687 67.4369C142.658 67.4397 142.63 67.4411 142.6 67.441C142.34 67.44 142.084 67.3138 142.084 66.9691C142.084 66.4821 142.715 66.317 142.858 66.2887" stroke="black" stroke-linecap="round"/>
<path d="M143.18 64.4605C143.424 64.5597 143.573 64.9197 142.987 65.2258C142.402 65.5319 142.543 65.9487 142.687 66.1188C142.916 66.3172 143.659 66.4675 144.794 65.481C145.931 64.4944 144.149 63.8792 143.074 63.6949" stroke="black" stroke-linecap="round"/>
<path d="M140.665 65.4808C141.153 65.0981 142.102 64.5623 141.999 65.4808C141.895 66.3993 141.239 66.799 140.923 66.8841" stroke="black" stroke-linecap="round"/>
<path d="M140.665 69.1632C140.95 68.9177 141.437 68.1145 141.094 66.8665" stroke="black" stroke-linecap="round"/>
<path d="M140.873 65.1825L140.336 62.2731" stroke="black" stroke-linecap="round"/>
<path d="M142.797 61.7806L143.163 64.7548" stroke="black" stroke-linecap="round"/>
<path d="M143.639 69.3716C143.639 70.1838 144.028 71.2525 143.163 71.5089C142.108 71.8221 141.996 70.8677 141.781 69.8846L141.219 66.9351" stroke="black" stroke-linecap="round"/>
<path d="M140.555 64.0778C139.954 64.1871 138.543 64.7996 137.712 66.3745C136.881 67.9495 136.09 68.4526 135.798 68.5073" stroke="black" stroke-linecap="round"/>
<path d="M135.962 71.2413C137.493 71.4053 140.654 71.3397 141.704 70.2023" stroke="black" stroke-linecap="round"/>
<path d="M140.61 62.2182C143.51 62.2182 145.86 59.8678 145.86 56.9684C145.86 54.069 143.51 51.7186 140.61 51.7186C137.711 51.7186 135.36 54.069 135.36 56.9684C135.36 59.8678 137.711 62.2182 140.61 62.2182Z" stroke="black"/>
<path d="M189 67.1452C186.903 67.5756 187.886 70.464 186.349 71.2326C184.514 72.1501 183.882 66.9845 184.12 64.792C184.189 63.8306 185.308 63.4031 185.459 64.792C185.62 66.2674 183.789 71.9884 181.691 69.7808L180.291 68.16C179.902 67.6804 179.135 67.014 178.487 68.16C177.838 69.3059 176.804 68.9273 176.369 68.5947L175.001 67.5991" stroke="black" stroke-linecap="round"/>
<path d="M175.982 63.1864L165.091 61.3415C164.983 61.3233 164.918 61.4574 165 61.5306L170.044 66.0738C170.053 66.081 170.06 66.087 170.071 66.091C170.518 66.2665 172.23 65.5917 173.142 65.1835C173.204 65.1559 173.275 65.1896 173.293 65.2544C173.503 65.99 173.757 66.6701 173.887 66.9942C173.907 67.0419 173.959 67.0683 173.994 67.0303C174.238 66.7613 174.272 65.3917 174.255 64.6057C174.254 64.5496 174.294 64.502 174.35 64.4912C175.02 64.3603 175.927 63.7713 176.313 63.4799" stroke="black" stroke-linecap="round"/>
<path d="M173.251 65.1063C172.089 64.5716 169.15 63.2325 166.688 62.1533" stroke="black" stroke-linecap="round"/>
<path d="M173.907 67.0754L171.72 65.7629" stroke="black" stroke-linecap="round"/>
<path d="M173.469 64.0129L170.516 63.1379" stroke="black" stroke-linecap="round"/>
<path d="M99.6207 77.9027C98.837 76.9913 97.7395 75.07 99.6207 74.6763C101.972 74.1841 107.277 74.2935 107.495 75.6059" stroke="black" stroke-linecap="round"/>
<path d="M74.4316 106.673C74.857 106.903 76.1394 106.991 77.8661 105.501C79.5928 104.012 79.9705 102.684 79.9435 102.207" stroke="black" stroke-linecap="round"/>
<path d="M72.2952 106.637C72.2468 107.048 72.5198 107.678 73.9982 106.911L74.4318 106.673L75.1861 106.259" stroke="black" stroke-linecap="round"/>
<path d="M71.9097 105.364C71.5624 105.568 71.0027 106.094 71.5432 106.57C71.7063 106.713 71.9759 106.717 72.2946 106.637C73.0321 106.45 74.0324 105.811 74.5825 105.401" stroke="black" stroke-linecap="round"/>
<path d="M78.3544 100.191C77.5392 99.8911 75.8551 99.307 74.7359 99.6958C74.4551 99.8012 73.8184 99.9464 73.5189 99.684C73.1445 99.356 72.4348 100.197 73.3998 100.76C74.3648 101.324 74.9935 100.727 74.8656 101.62C74.7634 102.336 72.7831 103.496 71.8058 103.987C71.4547 104.146 70.8747 104.607 71.3636 105.179C71.4847 105.321 71.6771 105.373 71.9095 105.363C72.616 105.334 73.6933 104.735 74.2686 104.347" stroke="black" stroke-linecap="round"/>
<path d="M49.7058 60.8345C52.5882 63.7848 57.9434 65.0849 60.7662 65.4398C60.9657 65.4649 61.0359 65.7244 60.874 65.8438L53.4471 71.3218C53.4229 71.3397 53.3951 71.3525 53.3657 71.359C47.8668 72.5863 42.7401 67.1122 40.7058 64.0023C40.6282 63.8839 40.686 63.7266 40.8203 63.6815L49.4767 60.7785C49.5575 60.7514 49.6462 60.7736 49.7058 60.8345Z" stroke="#933BEB" stroke-linecap="round"/>
<path d="M45.4531 65.3277C46.3281 65.1459 48.2311 64.58 48.8436 63.77" stroke="#933BEB" stroke-linecap="round"/>
<path d="M47.9141 67.2963C48.4609 67.3145 49.7187 67.0448 50.3749 65.8198" stroke="#933BEB" stroke-linecap="round"/>
<path d="M50.5938 68.6088C51.414 68.4994 53.1749 67.876 53.6561 66.2573" stroke="#933BEB" stroke-linecap="round"/>
<path d="M31.258 83.6928C28.3754 86.6431 23.0202 87.9431 20.1975 88.298C19.998 88.3232 19.9278 88.5826 20.0896 88.7021L27.5166 94.1801C27.5407 94.1979 27.5686 94.2107 27.5979 94.2173C33.0969 95.4445 38.2237 89.9704 40.258 86.8606C40.3355 86.7421 40.2778 86.5849 40.1434 86.5398L31.487 83.6368C31.4063 83.6097 31.3176 83.6319 31.258 83.6928Z" stroke="#933BEB" stroke-linecap="round"/>
<path d="M35.5106 88.186C34.6356 88.0042 32.7326 87.4383 32.1201 86.6283" stroke="#933BEB" stroke-linecap="round"/>
<path d="M33.0497 90.1547C32.5029 90.1729 31.2451 89.9032 30.5889 88.6782" stroke="#933BEB" stroke-linecap="round"/>
<path d="M30.37 91.4672C29.5497 91.3578 27.7888 90.7344 27.3076 89.1157" stroke="#933BEB" stroke-linecap="round"/>
</svg>
