<svg width="210" height="210" viewBox="0 0 210 210" fill="none" xmlns="http://www.w3.org/2000/svg">
<rect width="210" height="210" rx="14" fill="white"/>
<path d="M96.3925 122.365C95.1433 115.917 99.7754 101.189 102.248 94.6309C103.072 95.0209 109.968 93.6776 112.18 90.4709C113.949 87.9054 116.955 86.8978 118.425 86.4407C120.377 85.834 123.63 85.9207 124.237 87.394L124.888 88.9108C127.013 95.0209 125.162 104.309 123.847 108.455L118.989 109.321C115.311 103.359 117.196 96.0899 118.599 93.2009C117.107 95.2117 112.917 97.3321 111.009 98.141C110.922 103.471 102.768 121.845 100.99 123.015C99.5673 123.951 97.3322 122.972 96.3925 122.365Z" fill="black"/>
<path d="M99.5083 123.427L98.9011 124.531M96.9923 122.728L95.8336 125.787L95.7342 126.05C95.624 126.315 95.5475 126.759 95.7342 127.137C95.8659 127.404 96.1283 127.639 96.6019 127.754C97.7471 128.034 102.053 128.337 104.063 128.454C104.41 128.497 105.07 128.331 104.931 127.317C104.792 126.303 104.063 125.375 103.239 125.001C102.571 124.697 100.847 124.225 98.9011 124.531L96.9923 122.728ZM98.2937 124.651C98.4979 124.602 98.7007 124.562 98.9011 124.531L98.2937 124.651Z" stroke="black" stroke-linecap="round"/>
<path d="M119.681 109.086C119.637 110.372 119.754 112.903 120.072 113.29C120.463 113.767 120.942 113.81 123.855 112.9C126.186 112.172 127.116 112.163 127.681 112.077C128.073 112.017 128.551 111.964 128.551 110.993C128.551 109.779 128.073 108.956 126.594 108.782C125.412 108.644 123.725 109.36 123.029 109.736V108.566" stroke="black" stroke-linecap="round"/>
<path d="M114.116 65.459C109.649 65.9104 100.872 67.8129 101.496 71.8116C101.592 72.1512 101.867 72.6929 102.38 73.2025C102.874 73.6933 103.588 74.1544 104.575 74.3761" stroke="black" stroke-linecap="round"/>
<path d="M102.38 73.2025C103.777 75.3758 107.871 80.0961 113.075 81.5913" stroke="black" stroke-linecap="round"/>
<path d="M113.042 81.5913C113.36 81.164 114.196 80.3916 115.177 80.355" stroke="black" stroke-linecap="round"/>
<path d="M115.177 80.355C115.148 79.1346 114.118 75.9873 110.231 73.1617" stroke="black" stroke-linecap="round"/>
<path d="M109.108 74.1734C109.512 73.5203 110.751 72.1338 112.48 71.8131" stroke="black" stroke-linecap="round"/>
<path d="M118.774 72.9369C118.962 73.1583 119.336 73.7605 119.336 74.398" stroke="black" stroke-linecap="round"/>
<path d="M118.73 82.2671C119.616 82.2238 121.466 82.0939 121.779 81.9206C122.171 81.7041 122.259 81.7041 122.259 81.2709C122.259 80.8379 118.73 81.5742 118.73 80.1882C119.05 79.8706 119.567 79.1575 119.079 78.8456C118.591 78.5338 117.569 79.4376 117.118 79.9284C116.654 80.4192 115.611 81.193 115.158 80.3614" stroke="black" stroke-linecap="round"/>
<path d="M113.154 81.574C113.546 82.7144 114.958 84.7615 117.467 83.826C119.976 82.8906 120.08 82.3968 119.819 82.2669" stroke="black" stroke-linecap="round"/>
<path d="M134.764 82.0593C135.373 81.8926 136.706 81.1174 137.159 79.3495C137.612 77.5816 136.999 77.573 136.636 77.7896" stroke="black" stroke-linecap="round"/>
<path d="M132.499 80.7797C132.688 79.7974 133.353 77.9025 134.502 78.1798" stroke="black" stroke-linecap="round"/>
<path d="M132.977 79.1761C132.176 78.5175 131.685 80.0283 131.54 80.8661C130.634 81.1434 130.291 82.4549 130.233 83.076C132.33 83.291 133.819 82.728 134.763 82.0593C135.34 81.6498 135.713 81.2007 135.895 80.8661C136.345 79.6673 137.001 77.1656 136.026 76.7497C135.05 76.3337 134.777 77.2696 134.763 77.7895C134.867 78.9682 134.255 80.2739 133.935 80.7795" stroke="black" stroke-linecap="round"/>
<path d="M120.347 82.2528C122.234 84.0149 126.853 86.6465 130.233 83.0761" stroke="black" stroke-linecap="round"/>
<path d="M120.011 82.4904C120.011 83.3085 119.808 85.1731 118.999 86.087" stroke="black" stroke-linecap="round"/>
<path d="M102.364 84.4011C100.583 86.8052 98.0895 92.239 102.364 94.7414" stroke="black" stroke-linecap="round"/>
<path d="M155.64 74.0609L156.651 72.375" stroke="#02A44F" stroke-linecap="round"/>
<path d="M156.134 74.9421L158 74.8553" stroke="#02A44F" stroke-linecap="round"/>
<path d="M155.752 75.9718L156.876 77.4329" stroke="#02A44F" stroke-linecap="round"/>
<path d="M119.012 128.91H88.6523V143.745" stroke="black" stroke-linecap="round"/>
<path d="M140.121 114.118H115.277V132.207" stroke="black" stroke-linecap="round"/>
<path d="M156.538 93.3837H136.385V117.545" stroke="black" stroke-linecap="round"/>
<path d="M152.978 77.6013V96.7672" stroke="black" stroke-linecap="round"/>
<path d="M152.978 70.9138V72.5435" stroke="black" stroke-linecap="round"/>
<path d="M113.607 82.6631L88.726 85.5251C85.8478 83.2193 86.5443 79.777 87.2523 78.3441L104.548 76.271" stroke="black" stroke-linecap="round"/>
<path d="M122.147 81.9722L130.687 81.1516" stroke="black" stroke-linecap="round"/>
<path d="M136.928 80.2446L142.52 79.8558L150.019 76.4568C149.117 75.4996 149.612 74.647 149.987 74.342L142.52 72.5999L112.957 75.0617" stroke="black" stroke-linecap="round"/>
<path d="M84.5742 78.38L87.1089 78.1072C85.351 82.0453 87.366 84.7244 88.6523 85.7669L85.694 86.1996C83.2215 83.1883 83.8589 79.8184 84.5742 78.38Z" fill="#02A44F"/>
<path d="M150.291 76.6459C149.35 75.6641 149.878 74.4947 150.27 74.1171L153.842 74.9986L150.291 76.6459Z" fill="#02A44F"/>
<path d="M142.602 72.5999C141.669 73.7843 140.362 76.8812 142.602 79.7931" stroke="black"/>
<path d="M121.113 66.2176C121.857 65.76 127.449 66.201 128.537 59.1662C130.398 59.188 131.41 57.6631 129.99 57.0105C128.476 56.2297 128.589 54.7963 128.864 53.9516C129.3 52.8439 129.326 51.681 129.232 51.4377" stroke="black" stroke-linecap="round"/>
<path d="M126.896 56.6255C127.108 56.628 127.282 56.3731 127.286 56.0563C127.289 55.7394 127.121 55.4806 126.91 55.4781C126.699 55.4756 126.524 55.7305 126.521 56.0473C126.517 56.3642 126.685 56.623 126.896 56.6255Z" fill="black"/>
<path d="M125.858 54.3038C126.169 53.9717 126.972 53.4861 127.7 54.1995" stroke="black" stroke-linecap="round"/>
<path d="M123.747 60.7682C124.318 61.6466 124.945 61.896 126.162 61.3291" stroke="black" stroke-linecap="round"/>
<path d="M119.074 54.6116C118.942 54.902 118.831 55.5613 119.446 55.8751" stroke="black" stroke-linecap="round"/>
<path d="M112.524 51.6292C111.799 55.5917 114.065 58.5745 115.708 60.8676C117.463 59.9196 120.339 57.6655 119.236 57.4221C118.076 57.1664 116.854 54.0044 117.98 53.0371C119.3 51.9023 120.491 53.6193 120.718 54.9213L121.782 53.0816C121.481 51.7949 121.363 49.5377 123.297 50.8031C125.232 52.0685 128.07 51.737 129.247 51.4131C131.568 49.7519 135.174 45.8769 131.03 43.6671C127.584 41.8292 123.099 44.1528 120.361 46.2407C118.507 45.7514 113.511 46.2264 112.524 51.6292Z" fill="black"/>
<path d="M115.836 60.6021C116.674 61.6107 117.09 62.4482 117.038 64.1833" stroke="black" stroke-linecap="round"/>
<path d="M114.904 66.5063C114.611 65.4831 114.439 63.5314 116.098 63.9108C118.172 64.3849 122.399 66.4356 122.089 67.5724" stroke="black" stroke-linecap="round"/>
<path d="M122.09 69.1716C123.607 70.5766 123.944 71.4757 124.169 73.1616" stroke="black" stroke-linecap="round"/>
<path d="M51 114.743C53.0612 114.555 57.918 115.784 61.1624 122.105C61.2473 122.27 61.4866 122.275 61.5711 122.109C64.899 115.594 68.9834 108.986 81.8935 116.943C82.092 117.065 82.3524 116.844 82.254 116.632C80.1595 112.127 79.0275 103.536 88.788 99.2741C88.9838 99.1887 88.9751 98.8977 88.7701 98.8377L86.2454 98.0998C86.014 98.0321 86.0392 97.7146 86.2793 97.6929C88.8802 97.4586 92.5493 97.6113 91.2861 99.1458C89.8112 100.937 89.4485 102.07 89.8081 103.941" stroke="#02A44F" stroke-linecap="round"/>
</svg>
