<svg width="210" height="210" viewBox="0 0 210 210" fill="none" xmlns="http://www.w3.org/2000/svg">
<rect width="210" height="210" rx="14" fill="white"/>
<path d="M51.7216 88.7427C52.3671 88.7427 52.8904 88.2194 52.8904 87.5739C52.8904 86.9283 52.3671 86.405 51.7216 86.405C51.076 86.405 50.5527 86.9283 50.5527 87.5739C50.5527 88.2194 51.076 88.7427 51.7216 88.7427Z" stroke="#EB3B84"/>
<path d="M54.0111 87.693C56.3687 87.4503 60.068 87.7373 60.5053 89.561C60.9425 91.3847 59.2729 92.0516 58.3834 92.1572C54.997 92.6954 50.5068 92.4421 50.5068 89.561" stroke="#EB3B84" stroke-linecap="round"/>
<path d="M53.1604 90.4512C53.3093 90.4512 53.4301 90.3304 53.4301 90.1815C53.4301 90.0325 53.3093 89.9117 53.1604 89.9117C53.0114 89.9117 52.8906 90.0325 52.8906 90.1815C52.8906 90.3304 53.0114 90.4512 53.1604 90.4512Z" stroke="#EB3B84"/>
<path d="M55.7671 90.1815C55.7671 90.3125 55.645 90.4512 55.4524 90.4512C55.2598 90.4512 55.1377 90.3125 55.1377 90.1815C55.1377 90.0505 55.2598 89.9117 55.4524 89.9117C55.645 89.9117 55.7671 90.0505 55.7671 90.1815Z" stroke="#EB3B84"/>
<path d="M57.7453 90.4512C57.8943 90.4512 58.0151 90.3304 58.0151 90.1815C58.0151 90.0325 57.8943 89.9117 57.7453 89.9117C57.5964 89.9117 57.4756 90.0325 57.4756 90.1815C57.4756 90.3304 57.5964 90.4512 57.7453 90.4512Z" stroke="#EB3B84"/>
<path d="M140.419 55.835C141.015 55.835 141.498 55.3519 141.498 54.7561C141.498 54.1602 141.015 53.6771 140.419 53.6771C139.823 53.6771 139.34 54.1602 139.34 54.7561C139.34 55.3519 139.823 55.835 140.419 55.835Z" stroke="black"/>
<path d="M142.539 53.8119C143.33 53.8119 145.589 53.8119 146.652 53.8119C147.512 53.8119 147.927 54.0023 147.927 55.3352C147.927 56.6302 147.916 58.3077 147.927 58.9847C147.934 59.4607 147.697 59.9875 146.907 60.0636C146.116 60.1398 142.943 60.0954 141.455 60.0636C140.903 60.0636 139.925 59.7504 139.925 58.4769V57.0488" stroke="#EB3B84" stroke-linecap="round"/>
<path d="M141.992 56.0598L143.97 57.4085" stroke="#EB3B84" stroke-linecap="round"/>
<path d="M143.971 57.4085L147.567 54.0818" stroke="#EB3B84" stroke-linecap="round"/>
<path d="M144.883 56.5997L145.866 57.5888L146.848 58.5778" stroke="#EB3B84" stroke-linecap="round"/>
<path d="M141.273 58.5778L142.723 56.5997" stroke="#EB3B84" stroke-linecap="round"/>
<path d="M148.327 123.267C148.028 123.566 147.77 123.824 147.593 124.002C147.13 124.465 146.644 124.195 146.459 124.002L143.508 121.158C143.072 120.753 142.704 120.353 141.057 118.782C140.888 118.613 140.621 118.182 140.901 117.808C141.181 117.434 142.756 115.471 143.508 114.536C143.736 114.206 144.232 113.813 144.864 114.401C145.409 114.907 147.276 116.66 148.871 117.993" stroke="#EB3B84" stroke-linecap="round"/>
<path d="M143.476 114.637C143.568 116.343 144.194 119.089 147.432 120.122" stroke="#EB3B84" stroke-linecap="round"/>
<path d="M151.687 120.254C151.539 119.877 150.399 119.438 149.969 120.254C149.525 121.096 149.864 121.805 150.153 121.944C150.522 122.122 151.063 122.215 151.635 121.193" stroke="#EB3B84" stroke-linecap="round"/>
<path d="M151.78 119.729C151.746 119.926 151.712 120.009 151.685 120.254C151.65 120.573 151.628 120.908 151.633 121.193C151.644 121.692 151.743 122.037 152.023 121.871C152.586 121.537 152.89 121.263 152.971 120.984C153.106 120.515 153.107 119.616 152.348 119.028C151.432 118.319 150.4 118.338 149.588 119.028C148.782 119.713 148.562 120.81 148.606 121.379C148.654 122.001 149.119 123.338 150.634 123.358C152.149 123.379 152.97 122.562 153.096 122.18" stroke="#EB3B84" stroke-linecap="round"/>
<path d="M71.9073 109.024C71.5841 107.776 70.5107 105.475 68.8039 106.253C67.0969 107.031 68.0926 108.424 68.8039 109.024C69.2825 109.348 70.3114 109.695 70.598 108.489C70.8847 107.284 69.6767 106.788 69.3372 107.323C69.1582 107.533 68.956 108.061 69.5797 108.489" stroke="#EB3B84" stroke-linecap="round"/>
<path d="M79.8106 48.8215C79.7384 48.4137 80.165 48.0999 80.5328 48.2904L80.9323 48.4974C81.3704 48.7244 81.8922 48.7215 82.3277 48.4895L82.7247 48.2776C83.0902 48.0831 83.5199 48.3921 83.4524 48.8007L83.3798 49.2444C83.2992 49.7313 83.4629 50.2267 83.8183 50.5693L84.1423 50.8813C84.4403 51.1689 84.2792 51.6733 83.8696 51.7352L83.4255 51.8023C82.9374 51.8761 82.5164 52.1857 82.3005 52.6296L82.1041 53.0334C81.9229 53.406 81.3934 53.4095 81.2077 53.0392L81.0064 52.6369C80.7854 52.1956 80.3613 51.8917 79.8725 51.8234L79.4273 51.7604C79.0171 51.7031 78.8502 51.2008 79.1449 50.9099L79.4655 50.5941C79.8168 50.2476 79.9751 49.7504 79.889 49.2645L79.8106 48.8215Z" stroke="#EB3B84"/>
<path d="M107.286 88.7352V96.3777" stroke="black" stroke-linecap="round"/>
<path d="M113.042 89.6342V96.917" stroke="black" stroke-linecap="round"/>
<path d="M99.5813 122.729C97.6812 122.966 93.233 123.838 92.2586 125.613C91.9663 126.145 91.6272 127.44 92.6094 128.363C93.5916 129.286 95.3865 129.043 96.1611 128.807L100.677 126.988" stroke="black" stroke-linecap="round"/>
<path d="M125.476 109.339C121.93 109.453 106.271 117.034 98.8848 120.811C98.2559 124.972 100.91 127.96 102.316 128.933C109.679 126.796 124.79 122.464 126.334 122.236C127.878 122.008 129.407 120.906 129.979 120.383C133.982 115.709 131.028 111.738 129.05 110.337C127.642 109.339 126.427 109.309 125.476 109.339Z" fill="black"/>
<path d="M92.2653 108.279C94.7774 108.446 105.736 112.693 110.928 114.919L99.0535 120.853C93.7392 122.412 90.4745 121.898 89.4776 121.562C83.7226 118.79 85.9774 111.949 88.2639 109.415C89.7376 108.161 91.3653 108.219 92.2653 108.279Z" fill="black"/>
<path d="M120.224 123.539C121.794 124.293 122.643 125.282 123.073 126.092C123.996 128.203 122.339 129.472 120.448 128.876C119.403 128.546 119.157 128.325 118.604 127.866C118.323 127.633 117.011 126.414 115.514 124.975" stroke="black" stroke-linecap="round"/>
<path d="M90.5962 96.9851L90.8071 100.818C91.0988 106.12 95.4826 110.269 100.792 110.269H116.707C122.23 110.269 126.707 105.792 126.707 100.269V96.2182C126.707 90.6427 122.148 86.144 116.573 86.2191L100.446 86.4365C94.7612 86.5132 90.2838 91.3081 90.5962 96.9851Z" fill="black"/>
<rect x="91.1035" y="110.584" width="35.605" height="1.70832" rx="0.854161" fill="black"/>
<path d="M113.131 76.5972C116.263 76.5522 123.156 78.9349 125.898 86.4425" stroke="black" stroke-linecap="round"/>
<path d="M106.253 76.5521C99.1052 77.9458 95.6886 81.0028 92.9912 86.892" stroke="black" stroke-linecap="round"/>
<path d="M130.169 83.6627L131.922 80.7406" stroke="black" stroke-linecap="round"/>
<path d="M131.922 84.4721L134.305 82.494" stroke="black" stroke-linecap="round"/>
<path d="M132.281 85.8204C132.746 86.0002 133.801 86.171 134.304 85.4158" stroke="black" stroke-linecap="round"/>
<path d="M86.2911 83.1156L83.5938 80.3284" stroke="black" stroke-linecap="round"/>
<path d="M89.0354 82.666L87.417 78.4851" stroke="black" stroke-linecap="round"/>
<path d="M85.6168 84.6892L83.5938 83.9249" stroke="black" stroke-linecap="round"/>
<path d="M127.696 91.485C129.36 94.0924 131.248 97.1944 127.696 103.031" stroke="black" stroke-linecap="round"/>
<path d="M113.176 76.8217C113.581 75.6528 113.212 74.8663 112.853 74.7164C110.695 76.6945 107.422 75.9602 106.208 74.7614C105.776 75.157 106.028 76.3272 106.208 76.6868C108.546 79.2763 111.872 77.8257 113.176 76.8217Z" fill="black"/>
<path d="M103.6 84.0149L103.781 83.7366C104.799 82.1743 106.78 81.5506 108.509 82.2479C110.062 82.874 111.841 82.4397 112.93 81.1685L114.344 79.5193" stroke="black" stroke-linecap="round"/>
<path d="M89.5286 93.1409C88.8543 94.7293 88.0541 98.5805 90.2479 101.278" stroke="black" stroke-linecap="round"/>
<path d="M119.374 58.4444C118.385 61.9959 117.89 62.3106 116.452 63.884C116.452 62.329 116.185 59.7189 116.185 58.6321C111.474 58.6321 107.499 56.7092 106.1 55.7477C106.15 59.0083 103.093 61.1402 103.093 61.1402C103.093 61.1402 103.532 62.4569 103.782 65.4039C103.983 67.7615 103.407 67.3059 103.093 66.7834C102.191 63.874 100.713 64.6515 100.087 65.4039C92.4005 52.9148 104.221 50.5016 106.476 50.7315C108.18 49.2768 110.556 48.1369 112.226 47.9697C118.25 47.3666 120.978 52.6857 119.374 58.4444Z" fill="black"/>
<path d="M103.2 69.006C104.009 73.9462 109.441 77.4985 113.36 73.4966C117.28 69.4947 116.495 62.1694 116.077 58.7511" stroke="black" stroke-linecap="round"/>
<path d="M99.9991 65.0978C99.5046 66.3116 99.9686 69.0013 103.2 69.0013" stroke="black" stroke-linecap="round"/>
<path d="M101.424 65.7649C101.352 66.0246 101.41 66.64 102.211 67.0237" stroke="black" stroke-linecap="round"/>
<path d="M115.968 68.3721C117.022 67.9324 117.766 66.3041 117.48 63.6967" stroke="black" stroke-linecap="round"/>
<path d="M110.032 71.3394C111.066 71.6091 111.001 70.8668 111.786 70.2155" stroke="black" stroke-linecap="round"/>
<ellipse cx="113.12" cy="65.0587" rx="0.674338" ry="0.674338" fill="black"/>
<ellipse cx="107.185" cy="65.1486" rx="0.674338" ry="0.674338" fill="black"/>
<path d="M105.718 63.6067C105.86 63.1889 106.472 62.4159 107.786 62.6666" stroke="black" stroke-linecap="round"/>
<path d="M112.011 62.7976C112.324 62.5262 113.176 62.1463 114.079 62.7976" stroke="black" stroke-linecap="round"/>
<path d="M109.835 64.6854C109.73 65.5732 109.659 67.3736 110.212 67.4727" stroke="black" stroke-linecap="round"/>
<path d="M135.743 105.466C147.746 108.793 169.307 112.614 159.525 101.285C156.438 98.2433 151.882 94.6768 144.555 91.5299" stroke="black" stroke-linecap="round"/>
<path d="M148.735 82.2229C156.198 77.4426 168.219 67.5673 156.603 66.3085C144.986 65.0497 134.38 69.4105 130.528 71.7482" stroke="black" stroke-linecap="round"/>
<path d="M119.829 75.2373C124.775 64.5828 132.777 42.5005 125.224 39.4075C115.783 35.5413 103.555 46.6904 93.5752 73.3042" stroke="black" stroke-linecap="round"/>
<path d="M82.5772 66.0592C71.5181 60.0052 48.9412 50.6933 47.107 61.8783C45.2728 73.0634 67.6818 82.3932 79.1156 85.66" stroke="black" stroke-linecap="round"/>
<path d="M82.0503 91.5299C65.9112 99.7568 45.6891 111.135 56.8903 117.065C61.4757 119.492 73.2093 118.009 78.604 115.806" stroke="black" stroke-linecap="round"/>
<ellipse cx="108.455" cy="145.387" rx="22.2531" ry="2.69735" fill="black"/>
</svg>
