<svg width="210" height="210" viewBox="0 0 210 210" fill="none" xmlns="http://www.w3.org/2000/svg">
<rect width="210" height="210" rx="14" fill="white"/>
<path d="M86.4186 55.7771C101.486 53.3335 116.481 67.2192 119.708 87.1157C122.934 107.012 113.097 124.925 98.0294 127.369C82.9623 129.812 67.9672 115.927 64.7403 96.0304C61.5135 76.134 71.3515 58.2208 86.4186 55.7771Z" stroke="black"/>
<path d="M88.8095 63.6117C94.3353 62.7155 99.8673 64.9168 104.35 69.2799C108.833 73.643 112.238 80.1466 113.473 87.7619C114.708 95.3769 113.532 102.623 110.659 108.179C107.785 113.735 103.232 117.572 97.7062 118.468C92.1804 119.364 86.6483 117.163 82.1657 112.8C77.6833 108.437 74.2786 101.934 73.0435 94.3188C71.8085 86.7037 72.9832 79.4571 75.857 73.9009C78.7309 68.3448 83.2838 64.5079 88.8095 63.6117Z" stroke="black"/>
<ellipse cx="95.1948" cy="91.3433" rx="10.5757" ry="14.2597" transform="rotate(-9.21208 95.1948 91.3433)" fill="black"/>
<path d="M70.8947 123.558C89.9924 141.939 111.239 131.197 115.775 119.619C113.755 131.168 100.069 137.72 88.6794 138C76.1465 138 60.5101 127.616 56.213 118.186C40.4001 83.4859 64.4889 59.0623 76.5047 55.6406C53.9452 66.2638 50.3691 103.802 70.8947 123.558Z" fill="black"/>
<path d="M95.0049 88.226L129.023 66.4761L135.827 62.2051" stroke="#2563EB" stroke-linecap="round"/>
<path d="M128.188 64.7119L128.979 59.291C129.007 59.0983 129.13 58.9324 129.306 58.8491L142.932 52.3999C143.452 52.1541 143.975 52.7303 143.681 53.2238L140.716 58.192C140.497 58.559 140.735 59.0289 141.161 59.0692L147.446 59.6637C147.991 59.7153 148.169 60.423 147.714 60.7268L136.061 68.4955C135.913 68.5936 135.729 68.6194 135.561 68.5655L129.024 66.4763" stroke="#2563EB" stroke-linecap="round"/>
<path d="M96.3184 90.7329L138.902 75.4811L146.459 72.7547" stroke="#2563EB" stroke-linecap="round"/>
<path d="M138.461 73.5792L140.386 68.4504C140.455 68.2681 140.61 68.1321 140.8 68.0882L155.486 64.6845C156.046 64.5548 156.435 65.2291 156.042 65.6487L152.088 69.8727C151.796 70.1847 151.929 70.6946 152.336 70.8244L158.351 72.742C158.873 72.9084 158.897 73.6378 158.387 73.8378L145.348 78.9504C145.184 79.015 144.998 79.0011 144.845 78.9126L138.902 75.4809" stroke="#2563EB" stroke-linecap="round"/>
<path d="M129.553 85.8301L132.119 81.5537C132.218 81.3876 132.394 81.282 132.588 81.2721L145.931 80.5867C146.505 80.5572 146.769 81.2887 146.309 81.6331L142.285 84.6483C141.945 84.903 141.984 85.4242 142.358 85.6258L147.148 88.2093C147.627 88.4677 147.52 89.184 146.986 89.2915L134.751 91.7557C134.575 91.7913 134.392 91.7431 134.256 91.6252L129.617 87.6093" stroke="#2563EB" stroke-linecap="round"/>
<path d="M97.0352 93.2388L129.618 87.6085L136.761 86.3742" stroke="#2563EB" stroke-linecap="round"/>
</svg>
