<svg width="210" height="210" viewBox="0 0 210 210" fill="none" xmlns="http://www.w3.org/2000/svg">
<rect width="210" height="210" rx="14" fill="white"/>
<path d="M55.561 124.092C56.4949 121.456 56.1004 119.117 55.561 115.921C54.8868 111.927 53.7632 102.959 59.4563 97.2309C64.0107 92.6487 69.1944 90.2974 71.2169 89.6945" stroke="black" stroke-linecap="round"/>
<path d="M67.041 123.982C67.3667 122.841 70.5686 117.88 70.1615 114.534C70.015 113.581 70.1175 111.391 72.1391 110.249" stroke="black" stroke-linecap="round"/>
<path d="M65.2188 101.569C66.7569 99.0421 70.9318 95.7462 74.2278 95.1968C77.5237 94.6475 77.8152 96.8882 77.3902 97.8395C76.7527 99.2664 75.3653 100.844 72.5905 103.848C69.8415 106.824 68.3408 112.334 68.1658 114.963" stroke="black" stroke-linecap="round"/>
<path d="M119.688 92.6765C117.552 90.8434 112.24 87.5989 108.078 89.2864C107.702 89.4371 106.917 90.1453 106.797 91.7725" stroke="black" stroke-linecap="round"/>
<path d="M130.544 119.044C130.343 118.24 129.926 115.669 130.167 113.62C130.468 111.058 130.195 101.39 125.974 98.6029" stroke="black" stroke-linecap="round"/>
<path d="M129.82 98.8226L121.137 98.2535" stroke="black" stroke-linecap="round"/>
<ellipse cx="129.774" cy="96.1765" rx="2.30718" ry="3.18611" fill="black"/>
<path d="M126.501 97.7321C125.634 96.0885 126.272 94.7456 126.993 93.9866C127.293 93.6709 127.736 93.5605 128.171 93.5807L128.703 93.6055C129.805 93.6567 130.658 94.5903 130.609 95.6923L130.564 96.699C130.512 97.8505 129.501 98.7204 128.355 98.5989L127.82 98.5422C127.276 98.4844 126.757 98.2163 126.501 97.7321Z" fill="black"/>
<path d="M101.557 93.6608C101.493 94.2288 100.866 94.5433 100.373 94.2549C99.7815 93.9092 99.8797 93.0262 100.533 92.819C101.078 92.6459 101.621 93.092 101.557 93.6608Z" fill="black"/>
<path d="M72.0492 95.6368L70.9971 66.6183C70.997 62.3356 71.7937 55.0775 80.6922 55.1978C89.5907 55.318 94.4208 55.2479 95.7235 55.1978" stroke="black" stroke-linecap="round"/>
<path d="M105.944 55.1981H120.9C125.034 55.2733 128.566 57.0765 128.566 63.989C128.566 70.9014 128.362 85.3519 128.061 92.8905" stroke="black" stroke-linecap="round"/>
<path d="M115.537 128.707C109.374 129.158 92.8922 130.359 82.9465 130.784C78.7377 130.784 73.1611 130.243 72.4998 122.67L72.0488 104.562" stroke="black" stroke-linecap="round"/>
<circle cx="100.77" cy="51.7904" r="2.90584" stroke="black"/>
<path d="M96.1094 53.6499C96.6485 55.2096 95.8847 56.3493 94.1624 56.7243C93.3386 56.9036 92.1854 56.9192 89.9688 57.699C87.1981 58.6738 86.6739 61.4483 86.599 63.8478C86.5391 65.7674 87.6474 66.3972 89.5944 66.4722C95.2607 66.4472 107.397 66.6222 110.637 66.6222C114.007 66.6222 114.497 65.3474 114.606 64.5226C115.145 60.4435 113.707 58.8082 112.434 58.2239C111.835 57.949 110.083 57.2641 107.866 56.7243C105.65 56.1844 105.251 55.4495 105.47 54.3997C106.009 51.8203 105.695 49.7257 105.47 49.0009C105.22 48.0011 103.763 46.0915 99.9285 46.4514C95.1359 46.9013 95.4354 51.7003 96.1094 53.6499Z" stroke="black" stroke-linecap="round"/>
<path d="M122.348 92.3404L122.633 64.5444C122.633 63.9444 122.293 62.8943 120.908 62.8943C119.482 62.8943 116.281 62.9443 114.831 62.8943" stroke="black" stroke-linecap="round"/>
<path d="M86.2474 62.8946H79.3454C78.5952 62.8196 77.1548 63.2547 77.3948 65.5949C77.6349 67.9351 78.7952 104.224 79.3454 122.075C79.3204 122.975 79.7205 124.746 81.521 124.626C82.8908 124.534 104.206 123.334 116.964 122.774" stroke="black" stroke-linecap="round"/>
<path d="M124.435 92.6705L124.831 65.0607C124.831 64.234 124.47 63.0315 122.43 63.3321" stroke="black" stroke-linecap="round"/>
<path d="M78.0146 63.1069C77.2643 63.1069 75.5388 63.1069 75.6137 65.0609C75.6857 66.9389 76.364 86.1692 76.589 95.0878" stroke="black" stroke-linecap="round"/>
<path d="M76.5889 99.4067L77.2641 122.855C77.3391 123.682 77.6392 124.885 81.2405 124.584" stroke="black" stroke-linecap="round"/>
<path d="M85.2793 75.8508H99.3421" stroke="#EB5E3B" stroke-linecap="round"/>
<path d="M85.373 80.8395L115.734 80.6892" stroke="#EB5E3B" stroke-linecap="round"/>
<path d="M85.4482 85.875L109.271 85.6495" stroke="#EB5E3B" stroke-linecap="round"/>
<path d="M85.6772 93.6952L97.3972 93.1647" stroke="#EB5E3B" stroke-linecap="round"/>
<path d="M125.314 93.2198C124.765 94.2453 123.556 95.6369 124.874 98.2737" stroke="black" stroke-linecap="round"/>
<path d="M107.846 105.436C107.114 106.308 106.703 108.799 110.922 111.787C113.01 113.142 117.338 117.259 117.954 122.884" stroke="black" stroke-linecap="round"/>
<path d="M106.747 96.6252C106.354 97.3613 106.182 98.7779 107.406 100.135C108.009 100.803 108.951 101.458 110.373 102.009" stroke="black" stroke-linecap="round"/>
<path d="M107.406 100.135C106.62 101.271 105.904 103.6 107.845 105.436C108.348 105.911 110.018 106.792 110.922 107.172" stroke="black" stroke-linecap="round"/>
<path d="M122.664 142.112C120.32 136.655 117.038 124.841 122.664 121.237C129.695 116.733 138.814 126.95 142 135.74" stroke="black" stroke-linecap="round"/>
<path d="M129.928 93.5489L104.188 91.6955C103.966 91.6794 103.74 91.6992 103.527 91.7646C100.217 92.7809 101.307 94.6343 102.559 95.7975C102.844 96.0625 103.218 96.2044 103.605 96.2397L109.054 96.735" stroke="black" stroke-linecap="round"/>
<path d="M51.001 137.825C51.5503 132.698 55.3736 122.234 61.8777 123.552C68.3818 124.871 70.1543 136.626 70.2275 142.34" stroke="black" stroke-linecap="round"/>
<path d="M115.206 108.491C111.031 103.767 108.614 100.031 109.163 95.3071C109.469 92.674 110.986 91.5881 112.374 92.9029C114.217 94.6479 115.645 96.8452 117.651 97.7243C118.045 97.9073 119.293 98.2735 121.139 98.2735" stroke="black" stroke-linecap="round"/>
</svg>
