<svg width="28" height="28" viewBox="0 0 28 28" fill="none" xmlns="http://www.w3.org/2000/svg">
<path d="M15.7499 4.66675H11.0833V9.33341H15.7499V4.66675Z" fill="#257AFF"/>
<path d="M8.74992 18.6667H4.08325V23.3334H8.74992V18.6667Z" fill="#257AFF"/>
<path d="M8.74992 11.6667H4.08325V16.3334H8.74992V11.6667Z" fill="#257AFF"/>
<path d="M8.74992 4.66675H4.08325V9.33341H8.74992V4.66675Z" fill="#257AFF"/>
<path d="M22.7499 4.66675H18.0833V9.33341H22.7499V4.66675Z" fill="#257AFF"/>
<path d="M12.2499 20.8367V23.3334H14.6999L21.6766 16.3684L19.2033 13.8951L12.2499 20.8367Z" fill="#257AFF"/>
<path d="M15.7499 14.0351V11.6667H11.0833V16.3334H13.4516L15.7499 14.0351Z" fill="#257AFF"/>
<path d="M23.7416 13.4867L22.0966 11.8417C21.8633 11.6084 21.5016 11.6084 21.2683 11.8417L20.0316 13.0784L22.5049 15.5517L23.7416 14.3151C23.9749 14.0817 23.9749 13.7201 23.7416 13.4867Z" fill="#257AFF"/>
</svg>
