<svg width="28" height="28" viewBox="0 0 28 28" fill="none" xmlns="http://www.w3.org/2000/svg">
<path d="M15.7499 4.66663H11.0833V9.33329H15.7499V4.66663Z" fill="white" fill-opacity="0.8"/>
<path d="M8.74992 18.6666H4.08325V23.3333H8.74992V18.6666Z" fill="white" fill-opacity="0.8"/>
<path d="M8.74992 11.6666H4.08325V16.3333H8.74992V11.6666Z" fill="white" fill-opacity="0.8"/>
<path d="M8.74992 4.66663H4.08325V9.33329H8.74992V4.66663Z" fill="white" fill-opacity="0.8"/>
<path d="M22.7499 4.66663H18.0833V9.33329H22.7499V4.66663Z" fill="white" fill-opacity="0.8"/>
<path d="M12.2499 20.8366V23.3333H14.6999L21.6766 16.3683L19.2033 13.895L12.2499 20.8366Z" fill="white" fill-opacity="0.8"/>
<path d="M15.7499 14.035V11.6666H11.0833V16.3333H13.4516L15.7499 14.035Z" fill="white" fill-opacity="0.8"/>
<path d="M23.7416 13.4866L22.0966 11.8416C21.8633 11.6083 21.5016 11.6083 21.2683 11.8416L20.0316 13.0783L22.5049 15.5516L23.7416 14.315C23.9749 14.0816 23.9749 13.72 23.7416 13.4866Z" fill="white" fill-opacity="0.8"/>
</svg>
