<svg width="1035" height="653" viewBox="0 0 1035 653" fill="none" xmlns="http://www.w3.org/2000/svg">
<g clip-path="url(#clip0_2251_2712)">
<rect width="1035" height="653" rx="36" fill="#0C1118"/>
<g filter="url(#filter0_f_2251_2712)">
<circle cx="174" cy="389" r="514" fill="url(#paint0_linear_2251_2712)"/>
</g>
<g filter="url(#filter1_f_2251_2712)">
<circle cx="959.5" cy="187.5" r="50.5" fill="#D9D9D9"/>
</g>
<path d="M30.5014 196.527L88.108 175.441L109.063 117.527C109.544 116.2 110.418 115.054 111.569 114.244C112.719 113.434 114.089 113 115.493 113C116.897 113 118.267 113.434 119.418 114.244C120.568 115.054 121.442 116.2 121.923 117.527L142.892 175.455L200.499 196.527C201.818 197.01 202.958 197.89 203.763 199.047C204.568 200.203 205 201.581 205 202.993C205 204.405 204.568 205.783 203.763 206.939C202.958 208.096 201.818 208.976 200.499 209.459L142.878 230.545L121.923 288.473C121.442 289.8 120.568 290.946 119.418 291.756C118.267 292.566 116.897 293 115.493 293C114.089 293 112.719 292.566 111.569 291.756C110.418 290.946 109.544 289.8 109.063 288.473L88.0942 230.531L30.5014 209.459C29.1821 208.976 28.0425 208.096 27.2372 206.939C26.4319 205.783 26 204.405 26 202.993C26 201.581 26.4319 200.203 27.2372 199.047C28.0425 197.89 29.1821 197.01 30.5014 196.527Z" stroke="white" stroke-opacity="0.2" stroke-width="2.47243" stroke-linecap="round" stroke-linejoin="round"/>
<path d="M815.88 417.241L827.144 413.141L831.241 401.88C831.335 401.622 831.506 401.399 831.731 401.242C831.956 401.084 832.224 401 832.499 401C832.773 401 833.041 401.084 833.266 401.242C833.491 401.399 833.662 401.622 833.756 401.88L837.856 413.144L849.12 417.241C849.378 417.335 849.601 417.506 849.758 417.731C849.916 417.956 850 418.224 850 418.499C850 418.773 849.916 419.041 849.758 419.266C849.601 419.491 849.378 419.662 849.12 419.756L837.853 423.856L833.756 435.12C833.662 435.378 833.491 435.601 833.266 435.758C833.041 435.916 832.773 436 832.499 436C832.224 436 831.956 435.916 831.731 435.758C831.506 435.601 831.335 435.378 831.241 435.12L827.141 423.853L815.88 419.756C815.622 419.662 815.399 419.491 815.242 419.266C815.084 419.041 815 418.773 815 418.499C815 418.224 815.084 417.956 815.242 417.731C815.399 417.506 815.622 417.335 815.88 417.241Z" stroke="white" stroke-opacity="0.21" stroke-width="1.59174" stroke-linecap="round" stroke-linejoin="round"/>
<path d="M933.106 179.418L947.267 174.263L952.418 160.106C952.536 159.782 952.751 159.502 953.034 159.304C953.316 159.106 953.653 159 953.998 159C954.343 159 954.68 159.106 954.963 159.304C955.246 159.502 955.461 159.782 955.579 160.106L960.733 174.267L974.894 179.418C975.218 179.536 975.498 179.751 975.696 180.034C975.894 180.316 976 180.653 976 180.998C976 181.343 975.894 181.68 975.696 181.963C975.498 182.246 975.218 182.461 974.894 182.579L960.73 187.733L955.579 201.894C955.461 202.218 955.246 202.498 954.963 202.696C954.68 202.894 954.343 203 953.998 203C953.653 203 953.316 202.894 953.034 202.696C952.751 202.498 952.536 202.218 952.418 201.894L947.263 187.73L933.106 182.579C932.782 182.461 932.502 182.246 932.304 181.963C932.106 181.68 932 181.343 932 180.998C932 180.653 932.106 180.316 932.304 180.034C932.502 179.751 932.782 179.536 933.106 179.418Z" stroke="white" stroke-opacity="0.21" stroke-width="2" stroke-linecap="round" stroke-linejoin="round"/>
<path d="M218.78 179.385L228.756 175.754L232.385 165.78C232.468 165.551 232.62 165.354 232.819 165.214C233.018 165.075 233.256 165 233.499 165C233.742 165 233.979 165.075 234.178 165.214C234.378 165.354 234.529 165.551 234.612 165.78L238.244 175.756L248.22 179.385C248.449 179.468 248.646 179.62 248.786 179.819C248.925 180.018 249 180.256 249 180.499C249 180.742 248.925 180.979 248.786 181.178C248.646 181.378 248.449 181.529 248.22 181.612L238.241 185.244L234.612 195.22C234.529 195.449 234.378 195.646 234.178 195.786C233.979 195.925 233.742 196 233.499 196C233.256 196 233.018 195.925 232.819 195.786C232.62 195.646 232.468 195.449 232.385 195.22L228.754 185.241L218.78 181.612C218.551 181.529 218.354 181.378 218.214 181.178C218.075 180.979 218 180.742 218 180.499C218 180.256 218.075 180.018 218.214 179.819C218.354 179.62 218.551 179.468 218.78 179.385Z" stroke="white" stroke-opacity="0.21" stroke-width="2" stroke-linecap="round" stroke-linejoin="round"/>
</g>
<defs>
<filter id="filter0_f_2251_2712" x="-440" y="-225" width="1228" height="1228" filterUnits="userSpaceOnUse" color-interpolation-filters="sRGB">
<feFlood flood-opacity="0" result="BackgroundImageFix"/>
<feBlend mode="normal" in="SourceGraphic" in2="BackgroundImageFix" result="shape"/>
<feGaussianBlur stdDeviation="50" result="effect1_foregroundBlur_2251_2712"/>
</filter>
<filter id="filter1_f_2251_2712" x="505" y="-267" width="909" height="909" filterUnits="userSpaceOnUse" color-interpolation-filters="sRGB">
<feFlood flood-opacity="0" result="BackgroundImageFix"/>
<feBlend mode="normal" in="SourceGraphic" in2="BackgroundImageFix" result="shape"/>
<feGaussianBlur stdDeviation="202" result="effect1_foregroundBlur_2251_2712"/>
</filter>
<linearGradient id="paint0_linear_2251_2712" x1="-249.59" y1="6.42998" x2="302.081" y2="583.215" gradientUnits="userSpaceOnUse">
<stop offset="0.358379" stop-color="#00E26B"/>
<stop offset="1" stop-color="#171717"/>
</linearGradient>
<clipPath id="clip0_2251_2712">
<rect width="1035" height="653" rx="36" fill="white"/>
</clipPath>
</defs>
</svg>
