<svg width="217" height="161" viewBox="0 0 217 161" fill="none" xmlns="http://www.w3.org/2000/svg">
<g clip-path="url(#clip0_3269_4196)">
<rect width="217" height="161" rx="24" fill="#171717"/>
<path d="M154.056 53.4897L167.573 48.5696L172.49 35.0562C172.602 34.7466 172.808 34.4792 173.078 34.2903C173.347 34.1013 173.669 34 173.998 34C174.328 34 174.649 34.1013 174.919 34.2903C175.189 34.4792 175.394 34.7466 175.507 35.0562L180.427 48.5728L193.944 53.4897C194.253 53.6024 194.521 53.8077 194.71 54.0776C194.899 54.3475 195 54.6689 195 54.9984C195 55.3278 194.899 55.6493 194.71 55.9192C194.521 56.1891 194.253 56.3943 193.944 56.5071L180.424 61.4272L175.507 74.9438C175.394 75.2534 175.189 75.5208 174.919 75.7097C174.649 75.8987 174.328 76 173.998 76C173.669 76 173.347 75.8987 173.078 75.7097C172.808 75.5208 172.602 75.2534 172.49 74.9438L167.57 61.4239L154.056 56.5071C153.747 56.3943 153.479 56.1891 153.29 55.9192C153.101 55.6493 153 55.3278 153 54.9984C153 54.6689 153.101 54.3475 153.29 54.0776C153.479 53.8077 153.747 53.6024 154.056 53.4897Z" stroke="white" stroke-opacity="0.2" stroke-linecap="round" stroke-linejoin="round"/>
<path d="M199.176 49.2483L201.429 48.4283L202.248 46.176C202.267 46.1244 202.301 46.0799 202.346 46.0484C202.391 46.0169 202.445 46 202.5 46C202.555 46 202.608 46.0169 202.653 46.0484C202.698 46.0799 202.732 46.1244 202.751 46.176L203.571 48.4288L205.824 49.2483C205.876 49.2671 205.92 49.3013 205.952 49.3463C205.983 49.3912 206 49.4448 206 49.4997C206 49.5546 205.983 49.6082 205.952 49.6532C205.92 49.6982 205.876 49.7324 205.824 49.7512L203.571 50.5712L202.751 52.824C202.732 52.8756 202.698 52.9201 202.653 52.9516C202.608 52.9831 202.555 53 202.5 53C202.445 53 202.391 52.9831 202.346 52.9516C202.301 52.9201 202.267 52.8756 202.248 52.824L201.428 50.5707L199.176 49.7512C199.124 49.7324 199.08 49.6982 199.048 49.6532C199.017 49.6082 199 49.5546 199 49.4997C199 49.4448 199.017 49.3912 199.048 49.3463C199.08 49.3013 199.124 49.2671 199.176 49.2483Z" stroke="white" stroke-opacity="0.21" stroke-width="0.5" stroke-linecap="round" stroke-linejoin="round"/>
<g filter="url(#filter0_f_3269_4196)">
<circle cx="-52.5" cy="162.5" r="287.5" fill="url(#paint0_linear_3269_4196)"/>
</g>
<g style="mix-blend-mode:screen" opacity="0.5">
<rect width="1056" height="1209" transform="translate(-419 -523)" fill="black"/>
<g clip-path="url(#clip1_3269_4196)">
<circle cx="13.7608" cy="33.5179" r="0.531566" fill="white"/>
<circle cx="145.425" cy="151.092" r="0.829915" fill="white"/>
<circle cx="121.325" cy="14.4152" r="0.733543" fill="white"/>
<circle cx="12.5478" cy="87.3628" r="0.657701" fill="white"/>
<circle cx="217.033" cy="46.7333" r="0.510679" fill="white"/>
<circle cx="166.507" cy="111.234" r="0.91567" fill="white"/>
<circle cx="116.787" cy="160.752" r="0.621549" fill="white"/>
<circle cx="47.592" cy="46.8064" r="0.618863" fill="white"/>
<circle cx="197.99" cy="93.5625" r="0.589883" fill="white"/>
<circle cx="64.9592" cy="149.024" r="0.851732" fill="white"/>
<circle cx="121.702" cy="57.3851" r="0.621456" fill="white"/>
<circle cx="122.172" cy="98.5992" r="0.548428" fill="white"/>
<circle cx="4.85393" cy="78.7038" r="0.512381" fill="white"/>
<circle cx="43.589" cy="65.7159" r="0.686645" fill="white"/>
<circle cx="149.953" cy="138.702" r="0.608732" fill="white"/>
<circle cx="131.938" cy="64.614" r="0.660916" fill="white"/>
<circle cx="210.455" cy="49.0865" r="0.54741" fill="white"/>
<circle cx="44.613" cy="26.069" r="0.627615" fill="white"/>
<circle cx="168.428" cy="24.5546" r="0.790912" fill="white"/>
<circle cx="190.392" cy="43.338" r="0.992303" fill="white"/>
<circle cx="41.8798" cy="104.879" r="0.724996" fill="white"/>
<circle cx="133.899" cy="2.57268" r="0.62932" fill="white"/>
<circle cx="194.287" cy="46.9041" r="0.962712" fill="white"/>
<circle cx="178.95" cy="88.2304" r="0.831914" fill="white"/>
<circle cx="37.4154" cy="127.591" r="0.569688" fill="white"/>
<circle cx="176.423" cy="81.4264" r="0.838463" fill="white"/>
<circle cx="136.859" cy="102.017" r="0.541976" fill="white"/>
<circle cx="182.69" cy="87.0822" r="0.896699" fill="white"/>
<circle cx="197.899" cy="145.17" r="0.6796" fill="white"/>
<circle cx="67.8917" cy="151.319" r="0.687859" fill="white"/>
<circle cx="23.1001" cy="21.5401" r="0.965867" fill="white"/>
<circle cx="78.7068" cy="15.9041" r="0.827911" fill="white"/>
<circle cx="162.419" cy="7.36608" r="0.96374" fill="white"/>
<circle cx="89.2203" cy="149.539" r="0.560585" fill="white"/>
<circle cx="168.167" cy="146.267" r="0.915239" fill="white"/>
<circle cx="177.566" cy="109.505" r="0.6572" fill="white"/>
<circle cx="184.727" cy="118.61" r="0.902962" fill="white"/>
<circle cx="21.991" cy="61.4602" r="0.993437" fill="white"/>
</g>
<g clip-path="url(#clip2_3269_4196)">
<g filter="url(#filter2_f_3269_4196)">
<ellipse cx="-81.6492" cy="-44.8093" rx="450" ry="135" transform="rotate(37.6928 -81.6492 -44.8093)" fill="#0000FF" fill-opacity="0.05"/>
</g>
</g>
</g>
</g>
<defs>
<filter id="filter0_f_3269_4196" x="-440" y="-225" width="775" height="775" filterUnits="userSpaceOnUse" color-interpolation-filters="sRGB">
<feFlood flood-opacity="0" result="BackgroundImageFix"/>
<feBlend mode="normal" in="SourceGraphic" in2="BackgroundImageFix" result="shape"/>
<feGaussianBlur stdDeviation="50" result="effect1_foregroundBlur_3269_4196"/>
</filter>
<filter id="filter2_f_3269_4196" x="-597.258" y="-490.041" width="1031.22" height="890.463" filterUnits="userSpaceOnUse" color-interpolation-filters="sRGB">
<feFlood flood-opacity="0" result="BackgroundImageFix"/>
<feBlend mode="normal" in="SourceGraphic" in2="BackgroundImageFix" result="shape"/>
<feGaussianBlur stdDeviation="75" result="effect1_foregroundBlur_3269_4196"/>
</filter>
<linearGradient id="paint0_linear_3269_4196" x1="-289.43" y1="-51.4861" x2="19.1409" y2="271.132" gradientUnits="userSpaceOnUse">
<stop offset="0.358379" stop-color="#00E26B"/>
<stop offset="1" stop-color="#171717"/>
</linearGradient>
<clipPath id="clip0_3269_4196">
<rect width="217" height="161" rx="24" fill="white"/>
</clipPath>
<clipPath id="clip1_3269_4196">
<rect width="1000" height="1000" fill="white" transform="translate(-419 -523)"/>
</clipPath>
<clipPath id="clip2_3269_4196">
<rect width="1000" height="1000" fill="white" transform="translate(-419 -523)"/>
</clipPath>
</defs>
</svg>
