<svg width="28" height="28" viewBox="0 0 28 28" fill="none" xmlns="http://www.w3.org/2000/svg">
<g clip-path="url(#clip0_4049_16557)">
<path d="M11.3284 13.1717C11.1087 12.952 10.8107 12.8286 10.5001 12.8286C10.1894 12.8286 9.89141 12.952 9.67172 13.1717C9.45203 13.3914 9.32861 13.6893 9.32861 14C9.32861 14.3107 9.45203 14.6087 9.67172 14.8284L13.1717 18.3284C13.2807 18.4365 13.41 18.522 13.5522 18.5801C13.6943 18.6382 13.8465 18.6676 14.0001 18.6667C14.1598 18.6616 14.3167 18.6238 14.4612 18.5556C14.6057 18.4873 14.7347 18.3902 14.8401 18.27L23.0067 8.9367C23.1953 8.70258 23.2862 8.40471 23.2605 8.1052C23.2348 7.80568 23.0945 7.52764 22.8689 7.32904C22.6432 7.13045 22.3496 7.02663 22.0492 7.03923C21.7489 7.05184 21.465 7.17989 21.2567 7.3967L14.0001 15.7967L11.3284 13.1717Z" fill="#1D3F6D"/>
<path d="M24.5001 12.8334C24.1907 12.8334 23.8939 12.9563 23.6751 13.1751C23.4564 13.3939 23.3334 13.6906 23.3334 14C23.3334 16.4754 22.3501 18.8494 20.5998 20.5997C18.8494 22.35 16.4755 23.3334 14.0001 23.3334C12.1569 23.3325 10.3552 22.7859 8.82216 21.7625C7.28916 20.7391 6.09352 19.2846 5.386 17.5826C4.67849 15.8806 4.49078 14.0072 4.84654 12.1986C5.20231 10.39 6.08563 8.72727 7.38511 7.42004C8.24926 6.54432 9.2794 5.84976 10.4152 5.37699C11.5511 4.90422 12.7698 4.66275 14.0001 4.66671C14.7461 4.67138 15.4894 4.75744 16.2168 4.92337C16.369 4.97045 16.5292 4.98586 16.6876 4.96864C16.846 4.95142 16.9992 4.90194 17.1377 4.82325C17.2763 4.74456 17.3972 4.63833 17.4931 4.5111C17.589 4.38387 17.6579 4.23835 17.6954 4.08351C17.7329 3.92866 17.7383 3.76777 17.7113 3.61076C17.6842 3.45374 17.6253 3.30393 17.5381 3.17056C17.451 3.03719 17.3374 2.92309 17.2045 2.83529C17.0715 2.74748 16.922 2.68784 16.7651 2.66004C15.8588 2.44682 14.9312 2.33723 14.0001 2.33337C11.6952 2.34535 9.44543 3.03981 7.53479 4.32913C5.62415 5.61845 4.13824 7.44485 3.26458 9.57783C2.39092 11.7108 2.16866 14.0548 2.62585 16.314C3.08304 18.5731 4.19919 20.6463 5.83344 22.2717C7.99958 24.4388 10.936 25.6596 14.0001 25.6667C17.0943 25.6667 20.0618 24.4375 22.2497 22.2496C24.4376 20.0617 25.6668 17.0942 25.6668 14C25.6668 13.6906 25.5439 13.3939 25.3251 13.1751C25.1063 12.9563 24.8095 12.8334 24.5001 12.8334Z" fill="#1D3F6D"/>
</g>
<defs>
<clipPath id="clip0_4049_16557">
<rect width="28" height="28" fill="white"/>
</clipPath>
</defs>
</svg>
