<svg width="50" height="50" viewBox="0 0 50 50" fill="none" xmlns="http://www.w3.org/2000/svg">
<g clip-path="url(#clip0_1957_260)">
<path d="M24.9898 38.1148C25.8023 38.1148 26.4585 37.4585 26.4585 36.646L26.469 26.4689L36.6565 26.4689C37.469 26.4689 38.1253 25.8126 38.1253 25.0001C38.1253 24.1876 37.469 23.5314 36.6565 23.5314L26.469 23.5314L26.469 13.3438C26.469 12.5313 25.8127 11.8751 25.0002 11.8751C24.1877 11.8751 23.5314 12.5313 23.5314 13.3438L23.5314 23.5314L13.3439 23.5314C12.5314 23.5314 11.8751 24.1876 11.8751 25.0001C11.8751 25.8126 12.5314 26.4689 13.3439 26.4689L23.5314 26.4689L23.5314 36.6565C23.5314 37.4481 24.1981 38.1148 24.9898 38.1148Z" fill="white"/>
</g>
<defs>
<clipPath id="clip0_1957_260">
<rect width="35.3555" height="35.3555" fill="white" transform="translate(50.0003 25.0001) rotate(135)"/>
</clipPath>
</defs>
</svg>
