<svg width="80" height="80" viewBox="0 0 80 80" fill="none" xmlns="http://www.w3.org/2000/svg">
<circle cx="40.0001" cy="9.33333" r="9.33333" fill="#02A44F"/>
<circle cx="61.6846" cy="61.6846" r="3.46667" transform="rotate(135 61.6846 61.6846)" fill="#02A44F"/>
<circle cx="40.0001" cy="70.6666" r="9.33333" fill="#02A44F"/>
<circle cx="70.6667" cy="40.0001" r="9.33333" transform="rotate(90 70.6667 40.0001)" fill="#02A44F"/>
<circle cx="9.33342" cy="40.0001" r="9.33333" transform="rotate(90 9.33342 40.0001)" fill="#02A44F"/>
<circle cx="18.3154" cy="18.3154" r="3.46667" transform="rotate(135 18.3154 18.3154)" fill="#02A44F"/>
<circle cx="3.46667" cy="3.46667" r="3.46667" transform="matrix(0.707107 0.707107 0.707107 -0.707107 13.4128 61.6846)" fill="#02A44F"/>
<circle cx="3.46667" cy="3.46667" r="3.46667" transform="matrix(0.707107 0.707107 0.707107 -0.707107 56.782 18.3154)" fill="#02A44F"/>
<path fill-rule="evenodd" clip-rule="evenodd" d="M56.8022 8.01102C58.1061 8.69587 58.6079 10.308 57.923 11.6119L55.319 16.5696C54.6341 17.8734 53.022 18.3752 51.7181 17.6904C50.4143 17.0055 49.9125 15.3934 50.5973 14.0895L53.2014 9.13181C53.8862 7.82797 55.4984 7.32617 56.8022 8.01102Z" fill="#02A44F"/>
<path fill-rule="evenodd" clip-rule="evenodd" d="M28.2817 62.3096C29.5856 62.9944 30.0874 64.6066 29.4025 65.9104L26.7985 70.8682C26.1136 72.172 24.5015 72.6738 23.1976 71.9889C21.8938 71.3041 21.392 69.692 22.0768 68.3881L24.6809 63.4304C25.3657 62.1266 26.9779 61.6248 28.2817 62.3096Z" fill="#02A44F"/>
<path fill-rule="evenodd" clip-rule="evenodd" d="M23.1978 8.01102C21.8939 8.69587 21.3921 10.308 22.077 11.6119L24.681 16.5696C25.3659 17.8734 26.978 18.3752 28.2819 17.6904C29.5857 17.0055 30.0875 15.3934 29.4027 14.0895L26.7986 9.13181C26.1138 7.82797 24.5016 7.32617 23.1978 8.01102Z" fill="#02A44F"/>
<path fill-rule="evenodd" clip-rule="evenodd" d="M51.7183 62.3096C50.4144 62.9944 49.9126 64.6066 50.5975 65.9104L53.2015 70.8682C53.8864 72.172 55.4985 72.6738 56.8024 71.9889C58.1062 71.3041 58.608 69.692 57.9232 68.3881L55.3191 63.4304C54.6343 62.1266 53.0221 61.6248 51.7183 62.3096Z" fill="#02A44F"/>
<path fill-rule="evenodd" clip-rule="evenodd" d="M17.6074 28.4411C16.9319 29.7498 15.3233 30.2631 14.0146 29.5876L9.03849 27.0189C7.7298 26.3434 7.21653 24.7348 7.89206 23.4262C8.5676 22.1175 10.1761 21.6042 11.4848 22.2797L16.461 24.8484C17.7697 25.5239 18.2829 27.1324 17.6074 28.4411Z" fill="#02A44F"/>
<path fill-rule="evenodd" clip-rule="evenodd" d="M71.8684 22.9701C71.1743 21.6712 69.5586 21.1809 68.2597 21.875L63.3207 24.5143C62.0217 25.2084 61.5314 26.8241 62.2256 28.1231C62.9197 29.422 64.5354 29.9123 65.8343 29.2182L70.7733 26.5788C72.0723 25.8847 72.5625 24.269 71.8684 22.9701Z" fill="#02A44F"/>
<path fill-rule="evenodd" clip-rule="evenodd" d="M17.6074 51.5589C16.9319 50.2502 15.3233 49.7369 14.0146 50.4124L9.03849 52.9811C7.7298 53.6566 7.21653 55.2652 7.89206 56.5738C8.5676 57.8825 10.1761 58.3958 11.4848 57.7203L16.461 55.1516C17.7697 54.4761 18.2829 52.8676 17.6074 51.5589Z" fill="#02A44F"/>
<path fill-rule="evenodd" clip-rule="evenodd" d="M71.8684 57.0299C71.1743 58.3288 69.5586 58.8191 68.2597 58.125L63.3207 55.4857C62.0217 54.7916 61.5314 53.1759 62.2256 51.8769C62.9197 50.578 64.5354 50.0877 65.8343 50.7818L70.7733 53.4212C72.0723 54.1153 72.5625 55.731 71.8684 57.0299Z" fill="#02A44F"/>
</svg>
