<svg width="45" height="40" viewBox="0 0 45 40" fill="none" xmlns="http://www.w3.org/2000/svg">
<path d="M24.1835 6.66634L33.0526 14.7163V33.333H11.0175V6.66634H24.1835ZM25.7076 3.33301H11.0175C8.99766 3.33301 7.34503 4.83301 7.34503 6.66634V33.333C7.34503 35.1663 8.99766 36.6663 11.0175 36.6663H33.0526C35.0725 36.6663 36.7251 35.1663 36.7251 33.333V13.333L25.7076 3.33301ZM22.0351 23.333C24.055 23.333 25.7076 21.833 25.7076 19.9997C25.7076 18.1663 24.055 16.6663 22.0351 16.6663C20.0152 16.6663 18.3626 18.1663 18.3626 19.9997C18.3626 21.833 20.0152 23.333 22.0351 23.333ZM29.3801 29.0497C29.3801 27.6997 28.4987 26.4997 27.1399 25.9663C25.5791 25.3497 23.853 24.9997 22.0351 24.9997C20.2172 24.9997 18.4911 25.3497 16.9303 25.9663C15.5715 26.4997 14.6901 27.6997 14.6901 29.0497V29.9997H29.3801V29.0497Z" fill="black"/>
</svg>
