<svg width="45" height="45" viewBox="0 0 45 45" fill="none" xmlns="http://www.w3.org/2000/svg">
<rect width="44.9466" height="44.9466" rx="22.4733" fill="white"/>
<path d="M22.002 8.73828C21.3598 8.73828 20.7037 8.79412 20.0476 8.93372C16.1947 9.67359 13.1235 12.7866 12.3976 16.6395C11.7276 20.283 13.0677 23.6334 15.4967 25.7972C16.097 26.3276 16.4181 27.0675 16.4181 27.8492V31.074C16.4181 32.6095 17.6744 33.8659 19.21 33.8659H19.6009C20.0895 34.7035 20.969 35.2619 22.002 35.2619C23.035 35.2619 23.9284 34.7035 24.4031 33.8659H24.7939C26.3295 33.8659 27.5859 32.6095 27.5859 31.074V27.8492C27.5859 27.0815 27.893 26.3276 28.4793 25.8111C30.5035 24.0243 31.7738 21.4138 31.7738 18.5101C31.7738 13.1077 27.4044 8.73828 22.002 8.73828ZM24.7939 28.282H19.21V26.886H24.7939V28.282ZM19.21 31.074V29.678H24.7939V31.074H19.21ZM26.6227 23.7311C26.497 23.8428 26.3993 23.9824 26.2876 24.0941H17.7024C17.5907 23.9684 17.493 23.8288 17.3673 23.7171C15.5246 22.0699 14.701 19.613 15.1477 17.156C15.6503 14.4478 17.8838 12.2003 20.5781 11.6698C21.0527 11.5721 21.5273 11.5302 22.002 11.5302C25.8549 11.5302 28.9819 14.6572 28.9819 18.5101C28.9819 20.5064 28.1303 22.4049 26.6227 23.7311Z" fill="black"/>
<path d="M22.7 19.9061H21.304V24.0941H22.7V19.9061Z" fill="black"/>
<path d="M19.7398 16.9379L18.7527 17.925L21.714 20.8863L22.7011 19.8992L19.7398 16.9379Z" fill="black"/>
<path d="M21.3054 19.9134L22.2925 20.9005L25.2538 17.9392L24.2667 16.9521L21.3054 19.9134Z" fill="black"/>
</svg>
