<svg width="1275" height="1964" viewBox="0 0 1275 1964" fill="none" xmlns="http://www.w3.org/2000/svg">
<circle cx="863.271" cy="29.5" r="6.5" fill="#309F66"/>
<circle cx="1004.27" cy="308.5" r="6.5" fill="#309F66"/>
<path d="M866.771 465.5C721.771 497 473.171 463.7 438.771 614.5" stroke="#309F66" stroke-width="4"/>
<path d="M863.271 36C860.438 72.6667 882.471 152 993.271 176C1131.77 206 1249.77 160.5 1265.27 129C1280.77 97.5 1272.27 65 1224.27 50.5C1176.27 36 1002.77 51 1008.77 226.5C1014.77 402 923.771 451.5 863.271 466" stroke="#309F66" stroke-width="4"/>
<path d="M438.271 625C437.771 663.333 428.471 700.2 319.271 741C182.771 792 214.044 934.826 262.771 972C311.271 1009 441.772 1065.23 505.271 922C550.271 820.5 674.271 892 603.271 1013" stroke="#309F66" stroke-width="4"/>
<circle cx="601.271" cy="1018.5" r="6.5" fill="#309F66"/>
<path d="M597.771 1023.5C563.437 1075.33 547.771 1191.9 753.771 1239.5C1011.27 1299 1035.77 1355.5 966.771 1377.5C897.771 1399.5 853.771 1306.5 1008.77 1313.5C1132.77 1319.1 1127.27 1383.67 1110.77 1416" stroke="#309F66" stroke-width="4"/>
<path d="M1107.27 1426.5C1091.44 1468.67 1020.17 1579 863.771 1679C668.271 1804 597.771 1767 574.771 1744C516.771 1689.5 679.271 1650 716.271 1703.5C753.271 1757 651.771 1860.5 603.271 1882.5" stroke="#309F66" stroke-width="4"/>
<circle cx="600.271" cy="1885.5" r="6.5" fill="#309F66"/>
<path d="M594.771 1887C498.604 1921 245.871 1985.6 0.270996 1952" stroke="#309F66" stroke-width="4"/>
<circle cx="1109.27" cy="1421.5" r="6.5" fill="#309F66"/>
<circle cx="438.271" cy="619.5" r="6.5" fill="#309F66"/>
</svg>
