<svg width="16" height="16" viewBox="0 0 16 16" fill="none" xmlns="http://www.w3.org/2000/svg">
<path d="M12 5.66667H11.3333V4.33333C11.3333 2.49333 9.83996 1 7.99996 1C6.15996 1 4.66663 2.49333 4.66663 4.33333V5.66667H3.99996C3.26663 5.66667 2.66663 6.26667 2.66663 7V13.6667C2.66663 14.4 3.26663 15 3.99996 15H12C12.7333 15 13.3333 14.4 13.3333 13.6667V7C13.3333 6.26667 12.7333 5.66667 12 5.66667ZM7.99996 11.6667C7.26663 11.6667 6.66663 11.0667 6.66663 10.3333C6.66663 9.6 7.26663 9 7.99996 9C8.73329 9 9.33329 9.6 9.33329 10.3333C9.33329 11.0667 8.73329 11.6667 7.99996 11.6667ZM5.99996 5.66667V4.33333C5.99996 3.22667 6.89329 2.33333 7.99996 2.33333C9.10663 2.33333 9.99996 3.22667 9.99996 4.33333V5.66667H5.99996Z" fill="white"/>
</svg>
