<svg width="217" height="72" viewBox="0 0 217 72" fill="none" xmlns="http://www.w3.org/2000/svg">
<g clip-path="url(#clip0_3264_1680)">
<rect width="217" height="72" rx="24" fill="#171717"/>
<g filter="url(#filter0_f_3264_1680)">
<circle cx="-52.5" cy="162.5" r="287.5" fill="url(#paint0_linear_3264_1680)"/>
</g>
<g style="mix-blend-mode:screen" opacity="0.5">
<rect width="1056" height="1209" transform="translate(-419 -568)" fill="black"/>
<g clip-path="url(#clip1_3264_1680)">
<circle cx="12.5478" cy="42.3638" r="0.657701" fill="white"/>
<circle cx="217.033" cy="1.73431" r="0.510679" fill="white"/>
<circle cx="166.507" cy="66.2331" r="0.91567" fill="white"/>
<circle cx="47.592" cy="1.80539" r="0.618863" fill="white"/>
<circle cx="197.99" cy="48.5635" r="0.589883" fill="white"/>
<circle cx="121.702" cy="12.3851" r="0.621456" fill="white"/>
<circle cx="122.172" cy="53.5992" r="0.548428" fill="white"/>
<circle cx="4.85369" cy="33.7048" r="0.512381" fill="white"/>
<circle cx="43.589" cy="20.7169" r="0.686645" fill="white"/>
<circle cx="131.938" cy="19.615" r="0.660916" fill="white"/>
<circle cx="210.455" cy="4.08647" r="0.54741" fill="white"/>
<circle cx="41.8798" cy="59.8793" r="0.724996" fill="white"/>
<circle cx="194.287" cy="1.90412" r="0.962712" fill="white"/>
<circle cx="178.95" cy="43.2294" r="0.831914" fill="white"/>
<circle cx="176.423" cy="36.4264" r="0.838463" fill="white"/>
<circle cx="136.859" cy="57.0166" r="0.541976" fill="white"/>
<circle cx="182.691" cy="42.0822" r="0.896699" fill="white"/>
<circle cx="177.565" cy="64.5039" r="0.6572" fill="white"/>
<circle cx="21.991" cy="16.4602" r="0.993437" fill="white"/>
</g>
<g clip-path="url(#clip2_3264_1680)">
<g filter="url(#filter2_f_3264_1680)">
<ellipse cx="-81.649" cy="-89.8093" rx="450" ry="135" transform="rotate(37.6928 -81.649 -89.8093)" fill="#0000FF" fill-opacity="0.05"/>
</g>
</g>
</g>
<path d="M53.3135 15.793C56.3377 15.4933 59.1226 17.3162 61.0732 19.5039C61.6948 20.2012 62.2048 21.0592 62.8096 21.7979C62.5594 20.6962 62.3528 20.199 61.7695 19.2422C63.9541 18.5609 66.6922 18.4592 68.9336 18.9229C72.5682 19.6746 75.9071 21.8485 77.9824 24.9385C78.689 25.9906 79.1885 27.1399 79.873 28.1885C80.4606 29.0883 81.5248 29.803 82.1299 30.6885C82.4539 31.155 82.4983 31.7947 82.3418 32.3154C81.2054 36.0969 77.6921 38.4 74.2402 39.8555C74.0235 39.9469 73.7694 40.2431 73.7422 40.4951C73.7156 40.7419 73.6409 41.3105 73.8379 41.5361C74.9644 42.5718 78.1478 42.8098 79.458 42.9355C80.4941 41.0987 81.6449 38.6578 82.624 36.7383C84.4724 33.1347 86.2999 29.52 88.1055 25.8945C86.9541 26.0044 85.7453 26.1395 84.5947 26.1855C85.5095 25.1195 86.8626 23.9263 87.873 22.8252C87.2231 21.3754 86.4388 19.8593 85.7295 18.4287C87.1577 19.0598 88.7095 19.8926 90.1611 20.5693C91.2943 19.5004 92.3938 18.3402 93.5439 17.3057C93.4192 18.7483 93.2314 20.564 93.0127 21.9883C94.306 22.7705 95.9376 23.4225 97.3105 24.207C95.9199 24.5834 94.0709 24.942 92.6367 25.2646C92.4287 26.8155 92.2014 28.3648 91.9561 29.9102C91.2547 28.8879 90.5798 27.643 89.8809 26.5713C88.0299 30.7397 85.8388 34.8927 83.9268 39.0391C83.2017 40.6114 82.3257 42.2347 81.665 43.8252C81.7354 43.9892 81.796 44.1578 81.8467 44.3291C82.1984 45.5393 81.2212 46.4423 80.1484 46.7637C79.6344 47.7643 77.1937 53.3788 76.5986 53.6533C76.3153 53.7836 75.9238 53.6383 75.6602 53.5176C75.2608 53.3346 74.8776 53.0865 74.7158 52.6641C74.7084 52.1666 76.8542 48.0713 77.2744 47.207C75.1538 47.5526 73.5022 47.6443 71.3721 47.7607C71.139 48.0116 70.8142 48.5172 70.6074 48.8193C68.7692 47.4463 67.3888 46.1395 66.1348 44.2207C67.0771 48.3448 70.3276 48.212 71.5566 51.7012C71.699 52.2242 71.6171 52.8817 71.3105 53.3125C69.9312 55.2498 68.4382 53.0471 67.0801 52.5361C66.6313 52.3674 65.2936 52.2099 64.75 52.1328C62.4474 51.8065 60.8495 51.1013 58.9434 49.832C61.0902 52.8716 63.5289 52.4142 66.582 53.0762L66.6719 53.0957C65.9245 54.2325 63.2289 56.7187 62.1211 57.835C63.2505 57.8533 63.858 57.9916 64.833 58.5664C65.356 59.0099 66.258 60.0394 65.7871 60.7383C65.041 61.2849 61.0681 61.0665 60.0068 61.0361C58.2677 60.9847 56.5279 60.9576 54.7881 60.9541C54.5208 58.7523 53.1922 58.066 51.2773 57.5693C52.2745 56.36 52.8271 55.3283 53.1152 53.7666C53.847 49.7971 51.5555 44.8229 47.2705 44.1094C48.3505 44.6326 49.3119 45.3729 50.0928 46.2842C52.3888 48.9217 53.1506 52.6987 51.4668 55.8574C50.9071 56.9072 50.0193 57.607 49.1309 58.3623C49.6372 58.3469 50.1553 58.3159 50.6611 58.3428C51.6392 58.3949 52.7433 58.7689 53.3955 59.5264C53.7018 59.8821 53.9999 60.4552 53.9404 60.9404C53.9195 61.1106 53.8725 61.2284 53.7246 61.3252C53.0627 61.7572 40.9556 61.4539 39.6357 61.2461C38.4486 61.0592 37.0658 60.7842 36.0205 60.1572C35.5157 59.8545 35.0586 59.4536 34.4902 59.2705C32.9182 58.764 31.2414 58.6326 29.6641 58.0762C23.7324 55.9837 17.6822 51.4201 13.9639 46.3525C15.4286 45.7405 17.4976 45.4577 19.0479 44.8008C18.6412 44.0838 18.1199 43.3529 17.7002 42.6309C15.8984 39.5316 13.6924 36.3643 12.001 33.2383C13.7039 34.4964 15.6464 36.1903 17.2803 37.5537L22.2549 41.6484C24.1207 43.2101 25.9517 44.8038 27.8506 46.3252C26.3496 47.0866 24.5202 47.5788 23.1084 48.3301C24.4081 51.0469 28.6387 54.1852 31.4541 55.1094C30.4129 51.42 30.2703 49.1837 31.0635 45.4111C32.541 38.3835 37.9726 33.4317 44.6104 31.2324C46.0293 30.7622 47.4516 30.3832 48.8691 29.917C50.842 29.2832 52.1194 28.6003 53.3721 26.9463C55.1023 27.8632 56.3272 28.0361 58.25 27.8496C57.7941 27.6935 57.121 27.559 56.623 27.4102C55.3149 27.0191 54.0289 26.4403 52.916 25.6445C51.3541 24.5054 50.3123 22.7884 50.0234 20.877C49.6323 18.4414 50.6497 16.1842 53.3135 15.793ZM80.6572 31.5068C80.2073 32.172 80.6047 32.4446 81.2529 32.5684C81.5189 31.8944 81.338 31.6536 80.6572 31.5068ZM73.8301 28.5352C73.638 27.6216 72.7421 27.0356 71.8281 27.2256C70.9114 27.4163 70.3232 28.315 70.5156 29.2314C70.7082 30.1478 71.6083 30.7345 72.5244 30.54C73.4376 30.346 74.0221 29.4489 73.8301 28.5352ZM53.4941 17.4004C54.0756 17.7174 54.7555 17.8461 55.3213 18.1641C57.4094 19.338 58.9248 21.1958 59.9189 23.3545C59.2494 23.0708 58.6578 22.8043 57.9541 22.6074C58.394 23.203 58.7686 23.6505 59.248 24.207C58.6468 24.2012 58.0176 24.1849 57.4189 24.2012C57.9177 24.6348 58.4794 24.8655 59.0498 25.207L59.0576 25.3232C58.6967 25.4905 58.3372 25.6115 58.084 25.9043L58.0684 26.0479C58.4579 26.3405 59.6983 25.9451 60.1006 25.7168C60.0999 25.5057 60.0967 25.5718 60.0029 25.3594C60.1281 25.0119 60.8146 24.6092 61.1396 24.335C60.0518 21.162 57.2428 17.2736 53.4941 17.4004Z" fill="white"/>
<path d="M60.0915 12.9368C62.8478 12.6903 65.2281 15.5465 66.2785 17.7951C65.1919 17.7756 64.5448 17.7856 63.4639 17.947C62.6604 18.068 62.0161 18.2467 61.2486 18.4968C60.0361 17.2013 59.314 16.7771 57.8164 15.9395C58.1069 14.3696 58.4395 13.408 60.0915 12.9368Z" fill="white"/>
<path d="M90.978 54.5V51.908H93.3C93.576 51.908 93.828 51.854 94.056 51.746C94.296 51.626 94.488 51.452 94.632 51.224C94.776 50.984 94.848 50.69 94.848 50.342C94.848 49.994 94.776 49.706 94.632 49.478C94.488 49.238 94.296 49.064 94.056 48.956C93.828 48.836 93.576 48.776 93.3 48.776H90.978V46.184H94.002C94.83 46.184 95.574 46.352 96.234 46.688C96.906 47.012 97.434 47.486 97.818 48.11C98.214 48.722 98.412 49.466 98.412 50.342C98.412 51.206 98.214 51.95 97.818 52.574C97.434 53.198 96.906 53.678 96.234 54.014C95.574 54.338 94.83 54.5 94.002 54.5H90.978ZM88.062 59V46.184H91.662V59H88.062ZM98.8502 59V50.144H102.378V59H98.8502ZM100.614 49.316C100.098 49.316 99.6662 49.142 99.3182 48.794C98.9822 48.434 98.8142 47.996 98.8142 47.48C98.8142 46.964 98.9822 46.532 99.3182 46.184C99.6662 45.824 100.098 45.644 100.614 45.644C101.142 45.644 101.574 45.824 101.91 46.184C102.246 46.532 102.414 46.964 102.414 47.48C102.414 47.996 102.246 48.434 101.91 48.794C101.574 49.142 101.142 49.316 100.614 49.316ZM109.04 59L106.574 54.338L109.022 50.144H112.82L109.652 54.878L109.742 53.726L113 59H109.04ZM103.334 59V45.824H106.862V59H103.334ZM116.411 59.18C115.583 59.18 114.851 58.982 114.215 58.586C113.579 58.19 113.081 57.65 112.721 56.966C112.361 56.27 112.181 55.472 112.181 54.572C112.181 53.672 112.361 52.874 112.721 52.178C113.081 51.482 113.579 50.942 114.215 50.558C114.851 50.162 115.583 49.964 116.411 49.964C116.927 49.964 117.401 50.054 117.833 50.234C118.277 50.402 118.643 50.642 118.931 50.954C119.231 51.266 119.423 51.626 119.507 52.034V57.11C119.423 57.518 119.231 57.878 118.931 58.19C118.643 58.502 118.277 58.748 117.833 58.928C117.401 59.096 116.927 59.18 116.411 59.18ZM117.203 56.084C117.647 56.084 118.001 55.946 118.265 55.67C118.541 55.382 118.679 55.016 118.679 54.572C118.679 54.272 118.619 54.014 118.499 53.798C118.379 53.57 118.205 53.39 117.977 53.258C117.761 53.126 117.509 53.06 117.221 53.06C116.933 53.06 116.675 53.126 116.447 53.258C116.231 53.39 116.057 53.57 115.925 53.798C115.793 54.026 115.727 54.284 115.727 54.572C115.727 54.86 115.787 55.118 115.907 55.346C116.039 55.574 116.219 55.754 116.447 55.886C116.675 56.018 116.927 56.084 117.203 56.084ZM118.571 59V56.624L119.057 54.464L118.571 52.322V50.144H122.009V59H118.571ZM123.725 59V46.616H125.039V59H123.725ZM133.338 59V54.032C133.338 53.288 133.116 52.688 132.672 52.232C132.24 51.764 131.664 51.53 130.944 51.53C130.452 51.53 130.02 51.638 129.648 51.854C129.276 52.07 128.982 52.364 128.766 52.736C128.55 53.108 128.442 53.534 128.442 54.014L127.866 53.69C127.866 53.054 128.016 52.484 128.316 51.98C128.616 51.476 129.018 51.08 129.522 50.792C130.038 50.504 130.626 50.36 131.286 50.36C131.934 50.36 132.51 50.516 133.014 50.828C133.518 51.14 133.908 51.56 134.184 52.088C134.472 52.616 134.616 53.192 134.616 53.816V59H133.338ZM127.182 59V50.54H128.442V59H127.182ZM137.461 59V46.976H138.721V59H137.461ZM135.319 51.674V50.54H140.845V51.674H135.319ZM145.468 59.18C144.616 59.18 143.854 58.988 143.182 58.604C142.51 58.22 141.976 57.692 141.58 57.02C141.196 56.348 141.004 55.592 141.004 54.752C141.004 53.924 141.196 53.18 141.58 52.52C141.964 51.848 142.486 51.32 143.146 50.936C143.806 50.552 144.544 50.36 145.36 50.36C146.128 50.36 146.806 50.534 147.394 50.882C147.994 51.23 148.462 51.716 148.798 52.34C149.146 52.952 149.32 53.66 149.32 54.464C149.32 54.56 149.314 54.674 149.302 54.806C149.29 54.926 149.266 55.07 149.23 55.238H141.904V54.158H148.546L148.096 54.554C148.108 53.93 148 53.396 147.772 52.952C147.556 52.496 147.238 52.148 146.818 51.908C146.41 51.656 145.912 51.53 145.324 51.53C144.712 51.53 144.178 51.662 143.722 51.926C143.266 52.19 142.906 52.562 142.642 53.042C142.39 53.51 142.264 54.068 142.264 54.716C142.264 55.364 142.396 55.934 142.66 56.426C142.936 56.918 143.314 57.302 143.794 57.578C144.286 57.854 144.85 57.992 145.486 57.992C146.002 57.992 146.476 57.902 146.908 57.722C147.34 57.53 147.706 57.248 148.006 56.876L148.816 57.704C148.42 58.172 147.928 58.538 147.34 58.802C146.764 59.054 146.14 59.18 145.468 59.18ZM150.528 59V46.256H151.788V59H150.528ZM153.622 59V46.256H154.882V59H153.622ZM156.717 59V50.54H157.995V59H156.717ZM157.347 48.704C157.107 48.704 156.903 48.62 156.735 48.452C156.567 48.272 156.483 48.062 156.483 47.822C156.483 47.57 156.567 47.36 156.735 47.192C156.903 47.024 157.107 46.94 157.347 46.94C157.611 46.94 157.821 47.024 157.977 47.192C158.145 47.36 158.229 47.57 158.229 47.822C158.229 48.062 158.145 48.272 157.977 48.452C157.821 48.62 157.611 48.704 157.347 48.704ZM163.321 62.744C162.469 62.744 161.707 62.582 161.035 62.258C160.375 61.946 159.841 61.502 159.433 60.926L160.261 60.098C160.597 60.554 161.023 60.908 161.539 61.16C162.055 61.412 162.661 61.538 163.357 61.538C164.317 61.538 165.079 61.28 165.643 60.764C166.219 60.248 166.507 59.546 166.507 58.658V56.552L166.759 54.626L166.507 52.718V50.54H167.767V58.658C167.767 59.474 167.581 60.188 167.209 60.8C166.837 61.412 166.315 61.886 165.643 62.222C164.983 62.57 164.209 62.744 163.321 62.744ZM163.411 58.91C162.631 58.91 161.929 58.724 161.305 58.352C160.681 57.98 160.189 57.47 159.829 56.822C159.469 56.174 159.289 55.442 159.289 54.626C159.289 53.81 159.463 53.084 159.811 52.448C160.171 51.8 160.663 51.29 161.287 50.918C161.911 50.546 162.613 50.36 163.393 50.36C164.053 50.36 164.641 50.486 165.157 50.738C165.685 50.99 166.105 51.35 166.417 51.818C166.741 52.274 166.939 52.814 167.011 53.438V55.832C166.939 56.444 166.741 56.984 166.417 57.452C166.093 57.908 165.673 58.268 165.157 58.532C164.641 58.784 164.059 58.91 163.411 58.91ZM163.645 57.704C164.233 57.704 164.743 57.578 165.175 57.326C165.619 57.074 165.961 56.72 166.201 56.264C166.453 55.796 166.579 55.25 166.579 54.626C166.579 54.014 166.453 53.48 166.201 53.024C165.961 52.568 165.619 52.208 165.175 51.944C164.731 51.68 164.215 51.548 163.627 51.548C163.039 51.548 162.511 51.68 162.043 51.944C161.587 52.208 161.227 52.568 160.963 53.024C160.711 53.48 160.585 54.014 160.585 54.626C160.585 55.226 160.717 55.76 160.981 56.228C161.245 56.696 161.605 57.062 162.061 57.326C162.517 57.578 163.045 57.704 163.645 57.704ZM173.491 59.18C172.639 59.18 171.877 58.988 171.205 58.604C170.533 58.22 169.999 57.692 169.603 57.02C169.219 56.348 169.027 55.592 169.027 54.752C169.027 53.924 169.219 53.18 169.603 52.52C169.987 51.848 170.509 51.32 171.169 50.936C171.829 50.552 172.567 50.36 173.383 50.36C174.151 50.36 174.829 50.534 175.417 50.882C176.017 51.23 176.485 51.716 176.821 52.34C177.169 52.952 177.343 53.66 177.343 54.464C177.343 54.56 177.337 54.674 177.325 54.806C177.313 54.926 177.289 55.07 177.253 55.238H169.927V54.158H176.569L176.119 54.554C176.131 53.93 176.023 53.396 175.795 52.952C175.579 52.496 175.261 52.148 174.841 51.908C174.433 51.656 173.935 51.53 173.347 51.53C172.735 51.53 172.201 51.662 171.745 51.926C171.289 52.19 170.929 52.562 170.665 53.042C170.413 53.51 170.287 54.068 170.287 54.716C170.287 55.364 170.419 55.934 170.683 56.426C170.959 56.918 171.337 57.302 171.817 57.578C172.309 57.854 172.873 57.992 173.509 57.992C174.025 57.992 174.499 57.902 174.931 57.722C175.363 57.53 175.729 57.248 176.029 56.876L176.839 57.704C176.443 58.172 175.951 58.538 175.363 58.802C174.787 59.054 174.163 59.18 173.491 59.18ZM184.707 59V54.032C184.707 53.288 184.485 52.688 184.041 52.232C183.609 51.764 183.033 51.53 182.313 51.53C181.821 51.53 181.389 51.638 181.017 51.854C180.645 52.07 180.351 52.364 180.135 52.736C179.919 53.108 179.811 53.534 179.811 54.014L179.235 53.69C179.235 53.054 179.385 52.484 179.685 51.98C179.985 51.476 180.387 51.08 180.891 50.792C181.407 50.504 181.995 50.36 182.655 50.36C183.303 50.36 183.879 50.516 184.383 50.828C184.887 51.14 185.277 51.56 185.553 52.088C185.841 52.616 185.985 53.192 185.985 53.816V59H184.707ZM178.551 59V50.54H179.811V59H178.551ZM191.474 59.18C190.646 59.18 189.896 58.988 189.224 58.604C188.564 58.208 188.036 57.674 187.64 57.002C187.256 56.33 187.064 55.58 187.064 54.752C187.064 53.924 187.256 53.18 187.64 52.52C188.036 51.848 188.564 51.32 189.224 50.936C189.896 50.552 190.646 50.36 191.474 50.36C192.11 50.36 192.704 50.48 193.256 50.72C193.808 50.96 194.276 51.296 194.66 51.728L193.832 52.574C193.544 52.25 193.196 52.004 192.788 51.836C192.38 51.656 191.942 51.566 191.474 51.566C190.874 51.566 190.34 51.704 189.872 51.98C189.404 52.256 189.038 52.634 188.774 53.114C188.51 53.582 188.378 54.128 188.378 54.752C188.378 55.364 188.51 55.916 188.774 56.408C189.038 56.888 189.404 57.266 189.872 57.542C190.34 57.818 190.874 57.956 191.474 57.956C191.954 57.956 192.398 57.872 192.806 57.704C193.214 57.524 193.562 57.272 193.85 56.948L194.696 57.794C194.3 58.238 193.82 58.58 193.256 58.82C192.704 59.06 192.11 59.18 191.474 59.18ZM199.491 59.18C198.639 59.18 197.877 58.988 197.205 58.604C196.533 58.22 195.999 57.692 195.603 57.02C195.219 56.348 195.027 55.592 195.027 54.752C195.027 53.924 195.219 53.18 195.603 52.52C195.987 51.848 196.509 51.32 197.169 50.936C197.829 50.552 198.567 50.36 199.383 50.36C200.151 50.36 200.829 50.534 201.417 50.882C202.017 51.23 202.485 51.716 202.821 52.34C203.169 52.952 203.343 53.66 203.343 54.464C203.343 54.56 203.337 54.674 203.325 54.806C203.313 54.926 203.289 55.07 203.253 55.238H195.927V54.158H202.569L202.119 54.554C202.131 53.93 202.023 53.396 201.795 52.952C201.579 52.496 201.261 52.148 200.841 51.908C200.433 51.656 199.935 51.53 199.347 51.53C198.735 51.53 198.201 51.662 197.745 51.926C197.289 52.19 196.929 52.562 196.665 53.042C196.413 53.51 196.287 54.068 196.287 54.716C196.287 55.364 196.419 55.934 196.683 56.426C196.959 56.918 197.337 57.302 197.817 57.578C198.309 57.854 198.873 57.992 199.509 57.992C200.025 57.992 200.499 57.902 200.931 57.722C201.363 57.53 201.729 57.248 202.029 56.876L202.839 57.704C202.443 58.172 201.951 58.538 201.363 58.802C200.787 59.054 200.163 59.18 199.491 59.18Z" fill="white"/>
<path d="M88.744 42V36.32H90.736C91.36 36.32 91.8453 36.472 92.192 36.776C92.544 37.0747 92.72 37.488 92.72 38.016C92.72 38.3627 92.64 38.664 92.48 38.92C92.3253 39.176 92.0987 39.3733 91.8 39.512C91.5067 39.6453 91.152 39.712 90.736 39.712H89.288V42H88.744ZM89.288 39.184H90.736C91.2 39.184 91.5493 39.0853 91.784 38.888C92.024 38.6907 92.144 38.4 92.144 38.016C92.144 37.632 92.024 37.3413 91.784 37.144C91.5493 36.9467 91.2 36.848 90.736 36.848H89.288V39.184ZM94.8268 42.096C94.4428 42.096 94.1068 42.0053 93.8188 41.824C93.5361 41.6427 93.3175 41.3867 93.1628 41.056C93.0081 40.72 92.9308 40.328 92.9308 39.88C92.9308 39.4267 93.0081 39.0347 93.1628 38.704C93.3175 38.3733 93.5361 38.1173 93.8188 37.936C94.1068 37.7547 94.4428 37.664 94.8268 37.664C95.2108 37.664 95.5441 37.7547 95.8268 37.936C96.1095 38.1173 96.3281 38.3733 96.4828 38.704C96.6375 39.0347 96.7148 39.4267 96.7148 39.88C96.7148 40.328 96.6375 40.72 96.4828 41.056C96.3281 41.3867 96.1095 41.6427 95.8268 41.824C95.5441 42.0053 95.2108 42.096 94.8268 42.096ZM94.8268 41.592C95.2428 41.592 95.5681 41.44 95.8028 41.136C96.0428 40.8267 96.1628 40.408 96.1628 39.88C96.1628 39.352 96.0428 38.936 95.8028 38.632C95.5681 38.3227 95.2428 38.168 94.8268 38.168C94.4108 38.168 94.0828 38.3227 93.8428 38.632C93.6028 38.936 93.4828 39.352 93.4828 39.88C93.4828 40.408 93.6028 40.8267 93.8428 41.136C94.0828 41.44 94.4108 41.592 94.8268 41.592ZM98.1147 42L96.7627 37.76H97.3387L98.4347 41.448L99.5147 37.76H100.075L101.155 41.448L102.259 37.76H102.835L101.483 42H100.827L99.7947 38.56L98.7707 42H98.1147ZM104.781 42.096C104.376 42.096 104.032 42.0027 103.749 41.816C103.466 41.624 103.248 41.3627 103.093 41.032C102.944 40.696 102.869 40.312 102.869 39.88C102.869 39.448 102.944 39.0667 103.093 38.736C103.242 38.4 103.456 38.1387 103.733 37.952C104.016 37.76 104.354 37.664 104.749 37.664C105.128 37.664 105.456 37.7547 105.733 37.936C106.01 38.1173 106.221 38.3733 106.365 38.704C106.514 39.0347 106.589 39.4213 106.589 39.864V40.032H103.421C103.442 40.5333 103.573 40.92 103.813 41.192C104.053 41.4587 104.376 41.592 104.781 41.592C105.09 41.592 105.344 41.5173 105.541 41.368C105.738 41.2187 105.874 41.0213 105.949 40.776L106.517 40.816C106.41 41.1893 106.205 41.496 105.901 41.736C105.597 41.976 105.224 42.096 104.781 42.096ZM103.421 39.56H106.013C105.986 39.1067 105.861 38.7627 105.637 38.528C105.413 38.288 105.117 38.168 104.749 38.168C104.381 38.168 104.08 38.288 103.845 38.528C103.61 38.768 103.469 39.112 103.421 39.56ZM107.212 42V37.76H107.668L107.7 38.92L107.628 38.88C107.697 38.5013 107.823 38.2213 108.004 38.04C108.185 37.8533 108.436 37.76 108.756 37.76H109.124V38.272H108.74C108.527 38.272 108.345 38.32 108.196 38.416C108.047 38.5067 107.932 38.6373 107.852 38.808C107.777 38.9787 107.74 39.1813 107.74 39.416V42H107.212ZM111.133 42.096C110.728 42.096 110.384 42.0027 110.101 41.816C109.818 41.624 109.6 41.3627 109.445 41.032C109.296 40.696 109.221 40.312 109.221 39.88C109.221 39.448 109.296 39.0667 109.445 38.736C109.594 38.4 109.808 38.1387 110.085 37.952C110.368 37.76 110.706 37.664 111.101 37.664C111.48 37.664 111.808 37.7547 112.085 37.936C112.362 38.1173 112.573 38.3733 112.717 38.704C112.866 39.0347 112.941 39.4213 112.941 39.864V40.032H109.773C109.794 40.5333 109.925 40.92 110.165 41.192C110.405 41.4587 110.728 41.592 111.133 41.592C111.442 41.592 111.696 41.5173 111.893 41.368C112.09 41.2187 112.226 41.0213 112.301 40.776L112.869 40.816C112.762 41.1893 112.557 41.496 112.253 41.736C111.949 41.976 111.576 42.096 111.133 42.096ZM109.773 39.56H112.365C112.338 39.1067 112.213 38.7627 111.989 38.528C111.765 38.288 111.469 38.168 111.101 38.168C110.733 38.168 110.432 38.288 110.197 38.528C109.962 38.768 109.821 39.112 109.773 39.56ZM115.06 42.096C114.692 42.096 114.375 42.0053 114.108 41.824C113.841 41.6427 113.636 41.3867 113.492 41.056C113.348 40.7253 113.276 40.3333 113.276 39.88C113.276 39.4267 113.348 39.0347 113.492 38.704C113.636 38.3733 113.841 38.1173 114.108 37.936C114.375 37.7547 114.692 37.664 115.06 37.664C115.369 37.664 115.644 37.7413 115.884 37.896C116.129 38.0453 116.308 38.248 116.42 38.504V36.32H116.948V42H116.484L116.46 41.208C116.343 41.4853 116.156 41.704 115.9 41.864C115.649 42.0187 115.369 42.096 115.06 42.096ZM115.148 41.592C115.415 41.592 115.641 41.5227 115.828 41.384C116.02 41.24 116.167 41.04 116.268 40.784C116.369 40.5227 116.42 40.2213 116.42 39.88C116.42 39.5387 116.369 39.24 116.268 38.984C116.167 38.728 116.02 38.528 115.828 38.384C115.641 38.24 115.415 38.168 115.148 38.168C114.748 38.168 114.428 38.3227 114.188 38.632C113.948 38.936 113.828 39.352 113.828 39.88C113.828 40.4027 113.948 40.8187 114.188 41.128C114.428 41.4373 114.748 41.592 115.148 41.592ZM121.483 42.096C121.163 42.096 120.883 42.016 120.643 41.856C120.403 41.6907 120.225 41.4773 120.107 41.216L120.083 42H119.619V36.32H120.147V38.504C120.254 38.2747 120.425 38.0773 120.659 37.912C120.894 37.7467 121.169 37.664 121.483 37.664C121.851 37.664 122.169 37.7547 122.435 37.936C122.707 38.1173 122.918 38.3733 123.067 38.704C123.217 39.0347 123.291 39.4267 123.291 39.88C123.291 40.3333 123.217 40.7253 123.067 41.056C122.918 41.3867 122.707 41.6427 122.435 41.824C122.169 42.0053 121.851 42.096 121.483 42.096ZM121.459 41.592C121.849 41.592 122.158 41.44 122.387 41.136C122.617 40.8267 122.731 40.408 122.731 39.88C122.731 39.352 122.617 38.936 122.387 38.632C122.158 38.3227 121.851 38.168 121.467 38.168C121.195 38.168 120.961 38.24 120.763 38.384C120.566 38.5227 120.414 38.72 120.307 38.976C120.201 39.232 120.147 39.5333 120.147 39.88C120.147 40.2213 120.201 40.5227 120.307 40.784C120.414 41.04 120.563 41.24 120.755 41.384C120.953 41.5227 121.187 41.592 121.459 41.592ZM123.935 43.2V42.728H124.367C124.543 42.728 124.671 42.6987 124.751 42.64C124.837 42.5867 124.906 42.4907 124.959 42.352L125.119 41.92H124.927L123.335 37.76H123.911L125.279 41.448L126.583 37.76H127.159L125.415 42.528C125.33 42.7627 125.21 42.9333 125.055 43.04C124.906 43.1467 124.69 43.2 124.407 43.2H123.935Z" fill="white"/>
</g>
<defs>
<filter id="filter0_f_3264_1680" x="-440" y="-225" width="775" height="775" filterUnits="userSpaceOnUse" color-interpolation-filters="sRGB">
<feFlood flood-opacity="0" result="BackgroundImageFix"/>
<feBlend mode="normal" in="SourceGraphic" in2="BackgroundImageFix" result="shape"/>
<feGaussianBlur stdDeviation="50" result="effect1_foregroundBlur_3264_1680"/>
</filter>
<filter id="filter2_f_3264_1680" x="-597.257" y="-535.041" width="1031.22" height="890.464" filterUnits="userSpaceOnUse" color-interpolation-filters="sRGB">
<feFlood flood-opacity="0" result="BackgroundImageFix"/>
<feBlend mode="normal" in="SourceGraphic" in2="BackgroundImageFix" result="shape"/>
<feGaussianBlur stdDeviation="75" result="effect1_foregroundBlur_3264_1680"/>
</filter>
<linearGradient id="paint0_linear_3264_1680" x1="-289.43" y1="-51.4861" x2="19.1409" y2="271.132" gradientUnits="userSpaceOnUse">
<stop offset="0.358379" stop-color="#00E26B"/>
<stop offset="1" stop-color="#171717"/>
</linearGradient>
<clipPath id="clip0_3264_1680">
<rect width="217" height="72" rx="24" fill="white"/>
</clipPath>
<clipPath id="clip1_3264_1680">
<rect width="1000" height="1000" fill="white" transform="translate(-419 -568)"/>
</clipPath>
<clipPath id="clip2_3264_1680">
<rect width="1000" height="1000" fill="white" transform="translate(-419 -568)"/>
</clipPath>
</defs>
</svg>
