<svg width="16" height="16" viewBox="0 0 16 16" fill="none" xmlns="http://www.w3.org/2000/svg">
<rect width="16" height="16" rx="8" fill="url(#paint0_linear_3420_10349)"/>
<path d="M7.95483 4.31C8.4739 4.25872 8.95204 4.5712 9.28687 4.94672C9.39358 5.06643 9.48089 5.21444 9.58472 5.34125C9.54176 5.15207 9.50614 5.06607 9.40601 4.90179C9.78108 4.78481 10.2516 4.76751 10.6365 4.84711C11.2604 4.97623 11.833 5.3499 12.1892 5.88031C12.3105 6.06091 12.3969 6.25793 12.5144 6.43793C12.6153 6.59235 12.7982 6.71564 12.9021 6.86761C12.9574 6.94766 12.965 7.05772 12.9382 7.14691C12.743 7.79572 12.14 8.19103 11.5476 8.44086C11.5104 8.45658 11.4663 8.50794 11.4617 8.55121C11.4571 8.5938 11.4446 8.69131 11.4783 8.72992C11.672 8.90747 12.2183 8.94858 12.4431 8.97015C12.621 8.65483 12.819 8.23524 12.9871 7.9057C13.3043 7.28723 13.6176 6.66658 13.9275 6.04437C13.7299 6.06323 13.5224 6.08627 13.325 6.09418C13.482 5.9112 13.714 5.70603 13.8875 5.51703C13.7759 5.26821 13.641 5.00768 13.5193 4.76215C13.7645 4.87049 14.0318 5.01414 14.281 5.13031C14.4755 4.94687 14.6637 4.74731 14.8611 4.56976C14.8397 4.81738 14.8078 5.12904 14.7703 5.37347C14.9922 5.50767 15.272 5.61976 15.5076 5.75433C15.2689 5.81889 14.9519 5.88063 14.7058 5.93597C14.6701 6.2022 14.6307 6.46855 14.5886 6.73383C14.4682 6.55837 14.3521 6.34454 14.2322 6.16058C13.9144 6.8761 13.5389 7.58948 13.2107 8.30121C13.0862 8.57106 12.9354 8.84954 12.822 9.1225C12.8341 9.15066 12.8446 9.18001 12.8533 9.20941C12.9133 9.41697 12.7453 9.57225 12.5613 9.62738C12.4725 9.80048 12.054 10.7629 11.9519 10.81C11.9033 10.8322 11.836 10.8072 11.7908 10.7866C11.7223 10.7552 11.6564 10.7125 11.6287 10.6401C11.6274 10.5547 11.9955 9.85278 12.0681 9.70355C11.7041 9.76288 11.4202 9.77829 11.0544 9.79828C11.0145 9.84142 10.959 9.92814 10.9236 9.97992C10.608 9.74419 10.3713 9.51931 10.156 9.18988C10.3178 9.89791 10.8757 9.87597 11.0867 10.475C11.111 10.5648 11.0963 10.6776 11.0437 10.7514C10.807 11.0834 10.5512 10.7054 10.3181 10.6176C10.2411 10.5886 10.011 10.5625 9.91772 10.5493C9.52245 10.4932 9.24787 10.3716 8.92065 10.1537C9.28915 10.6754 9.70817 10.5968 10.2322 10.7104L10.2478 10.7143C10.1194 10.9095 9.65671 11.3362 9.46655 11.5278C9.66045 11.5309 9.76498 11.5551 9.93237 11.6537C10.0222 11.7301 10.1761 11.906 10.0955 12.0258C9.96695 12.1195 9.2854 12.0828 9.10327 12.0776C8.80485 12.0688 8.50631 12.0635 8.20776 12.0629C8.1618 11.6853 7.93371 11.5671 7.60522 11.4819C7.77618 11.2745 7.87121 11.0973 7.92065 10.8295C8.04629 10.148 7.6524 9.29384 6.91675 9.17133C7.10201 9.26109 7.26712 9.3881 7.40112 9.54437C7.79522 9.99713 7.92636 10.6457 7.63745 11.1879C7.54135 11.3682 7.38862 11.4889 7.23608 11.6186C7.32295 11.6159 7.41201 11.6101 7.49878 11.6147C7.66665 11.6236 7.8565 11.6879 7.96851 11.8178C8.02108 11.8789 8.07246 11.9777 8.06226 12.061C8.05865 12.0901 8.05051 12.1108 8.02515 12.1274C7.91039 12.2014 5.83304 12.1494 5.6062 12.1137C5.40241 12.0816 5.16456 12.0338 4.98511 11.9262C4.89861 11.8743 4.81982 11.8053 4.72241 11.7739C4.45264 11.687 4.16494 11.6643 3.89429 11.5688C2.87593 11.2095 1.83736 10.4261 1.19897 9.55609C1.45042 9.45111 1.80599 9.40319 2.07202 9.29047C2.00224 9.16743 1.91262 9.04133 1.84058 8.91742C1.53131 8.38543 1.15244 7.8417 0.862061 7.30511C1.15431 7.52105 1.48793 7.81138 1.76831 8.04535L2.62183 8.74847C2.94215 9.01658 3.25677 9.29099 3.58276 9.55219C3.32512 9.68284 3.01062 9.767 2.76831 9.89594C2.99151 10.3624 3.71858 10.9014 4.2019 11.06C4.02317 10.4267 3.9984 10.0425 4.13452 9.39496C4.38819 8.18841 5.32108 7.33796 6.46069 6.96039C6.7041 6.87975 6.948 6.81477 7.19116 6.7348C7.5298 6.62601 7.74959 6.50884 7.9646 6.22504C8.26137 6.38225 8.47175 6.41225 8.80151 6.38031C8.72325 6.35354 8.60763 6.32966 8.52222 6.30414C8.2979 6.23704 8.07734 6.13781 7.88647 6.0014C7.61843 5.80591 7.43909 5.51104 7.3894 5.18304C7.32226 4.76488 7.49748 4.37716 7.95483 4.31ZM12.6492 7.00726C12.572 7.12136 12.6396 7.16861 12.7507 7.18988C12.7964 7.07423 12.7659 7.03247 12.6492 7.00726ZM11.1335 6.27289C10.9761 6.30563 10.8749 6.46026 10.908 6.61761C10.9411 6.77487 11.0955 6.87556 11.2527 6.84222C11.4095 6.80891 11.5093 6.65438 11.4763 6.4975C11.4431 6.3411 11.2901 6.24056 11.1335 6.27289ZM7.98511 4.58636C8.08483 4.64073 8.20152 4.66276 8.29858 4.71722C8.65699 4.91873 8.91795 5.23733 9.08862 5.60785C8.97368 5.55915 8.87154 5.51373 8.75073 5.47992C8.82624 5.58213 8.89109 5.65882 8.97339 5.75433C8.87016 5.75334 8.76172 5.75056 8.65894 5.75336C8.74456 5.82778 8.8413 5.86759 8.93921 5.92621L8.94019 5.94672C8.87835 5.97534 8.81656 5.99616 8.77319 6.04633L8.77026 6.07074C8.8372 6.1209 9.05081 6.05329 9.11987 6.0141C9.11975 5.97784 9.11838 5.98898 9.10229 5.95258C9.12373 5.89305 9.24166 5.82387 9.29761 5.77679C9.11083 5.23204 8.62873 4.56456 7.98511 4.58636Z" fill="white"/>
<path d="M9.11813 3.81985C9.59134 3.77753 10 4.26789 10.1803 4.65394C9.99379 4.6506 9.8827 4.65232 9.69712 4.68002C9.55918 4.7008 9.44856 4.73147 9.31678 4.77441C9.10862 4.55201 8.98466 4.47917 8.72754 4.33536C8.77742 4.06584 8.83451 3.90075 9.11813 3.81985Z" fill="white"/>
<defs>
<linearGradient id="paint0_linear_3420_10349" x1="-2.10945e-07" y1="3.75" x2="14.5" y2="14.75" gradientUnits="userSpaceOnUse">
<stop stop-color="#08A155"/>
<stop offset="1" stop-color="#161D1D"/>
</linearGradient>
</defs>
</svg>
