<svg xmlns="http://www.w3.org/2000/svg" width="1035" height="233" viewBox="0 0 1035 233" fill="none">
<g clip-path="url(#clip0_2900_7697)">
<path d="M0 72C0 38.0589 0 21.0883 10.5442 10.5442C21.0883 0 38.0589 0 72 0H963C996.941 0 1013.91 0 1024.46 10.5442C1035 21.0883 1035 38.0589 1035 72V161C1035 194.941 1035 211.912 1024.46 222.456C1013.91 233 996.941 233 963 233H72C38.0589 233 21.0883 233 10.5442 222.456C0 211.912 0 194.941 0 161V72Z" fill="#0C1118"/>
<g filter="url(#filter0_f_2900_7697)">
<circle cx="174" cy="389" r="514" fill="url(#paint0_linear_2900_7697)"/>
</g>
<g opacity="0.18" filter="url(#filter1_f_2900_7697)">
<path d="M661.63 212.834C659.684 208.937 660.984 204.148 664.752 201.964L720.231 169.808C726.455 166.201 728.588 158.239 725.002 152.004C721.399 145.738 713.391 143.593 707.137 147.217L648.961 180.936C645.722 182.814 641.609 182.024 639.156 179.195C636.472 176.1 636.514 171.437 639.405 168.535L687.034 120.72C692.104 115.631 692.104 107.4 687.034 102.31C681.937 97.1926 673.65 97.1926 668.553 102.31L619.215 151.841C616.656 154.409 612.606 154.678 609.634 152.601C606.459 150.382 605.392 146.111 607.323 142.753L642.299 81.9367C645.879 75.7131 643.749 67.7669 637.538 64.1667C631.297 60.5493 623.304 62.6909 619.708 68.9442L583.912 131.187C582.139 134.269 578.359 135.527 575.037 134.259C571.574 132.938 569.562 129.243 570.518 125.661L589.081 56.1142C590.933 49.1756 586.817 42.0475 579.882 40.182C572.928 38.3114 565.776 42.4406 563.919 49.3984L545.128 119.799C544.216 123.218 540.888 125.38 537.374 124.955C533.804 124.524 531.018 121.546 531.018 117.95V45.0179C531.018 37.8283 525.19 32 518 32C510.81 32 504.982 37.8283 504.982 45.0179V117.95C504.982 121.546 502.196 124.524 498.626 124.955C495.112 125.38 491.784 123.218 490.872 119.799L472.081 49.3984C470.224 42.4406 463.072 38.3114 456.118 40.182C449.183 42.0475 445.067 49.1756 446.919 56.1142L465.482 125.661C466.438 129.243 464.426 132.938 460.963 134.259C457.641 135.527 453.861 134.269 452.088 131.187L416.292 68.9442C412.696 62.6909 404.703 60.5493 398.462 64.1667C392.251 67.7669 390.121 75.7131 393.701 81.9367L428.677 142.753C430.608 146.111 429.541 150.382 426.366 152.601C423.394 154.678 419.344 154.409 416.785 151.841L367.447 102.31C362.35 97.1926 354.063 97.1926 348.966 102.31C343.896 107.4 343.896 115.631 348.966 120.72L396.595 168.535C399.486 171.437 399.528 176.1 396.844 179.195C394.391 182.024 390.278 182.814 387.039 180.936L328.863 147.217C322.609 143.593 314.601 145.738 310.998 152.004C307.412 158.239 309.545 166.201 315.769 169.808L371.248 201.964C375.016 204.148 376.316 208.937 374.37 212.834C372.621 216.334 368.678 218.235 364.9 217.219L303.154 200.61C296.177 198.733 289.001 202.876 287.137 209.857C285.279 216.819 289.408 223.971 296.367 225.843L354.666 241.525C359.132 242.727 361.772 247.279 360.828 251.806C359.986 255.841 356.492 258.863 352.37 258.863H292.069C284.851 258.863 279 264.714 279 271.931C279 279.149 284.851 285 292.069 285H743.931C751.149 285 757 279.149 757 271.931C757 264.714 751.149 258.863 743.931 258.863H683.63C679.508 258.863 676.014 255.841 675.172 251.806C674.228 247.279 676.868 242.727 681.334 241.525L739.634 225.843C746.592 223.971 750.721 216.819 748.863 209.857C747 202.876 739.824 198.733 732.846 200.61L671.1 217.219C667.322 218.235 663.379 216.334 661.63 212.834Z" fill="white"/>
</g>
</g>
<defs>
<filter id="filter0_f_2900_7697" x="-440" y="-225" width="1228" height="1228" filterUnits="userSpaceOnUse" color-interpolation-filters="sRGB">
<feFlood flood-opacity="0" result="BackgroundImageFix"/>
<feBlend mode="normal" in="SourceGraphic" in2="BackgroundImageFix" result="shape"/>
<feGaussianBlur stdDeviation="50" result="effect1_foregroundBlur_2900_7697"/>
</filter>
<filter id="filter1_f_2900_7697" x="259" y="12" width="518" height="293" filterUnits="userSpaceOnUse" color-interpolation-filters="sRGB">
<feFlood flood-opacity="0" result="BackgroundImageFix"/>
<feBlend mode="normal" in="SourceGraphic" in2="BackgroundImageFix" result="shape"/>
<feGaussianBlur stdDeviation="10" result="effect1_foregroundBlur_2900_7697"/>
</filter>
<linearGradient id="paint0_linear_2900_7697" x1="-249.59" y1="6.42998" x2="302.081" y2="583.215" gradientUnits="userSpaceOnUse">
<stop offset="0.358379" stop-color="#00E26B"/>
<stop offset="1" stop-color="#171717"/>
</linearGradient>
<clipPath id="clip0_2900_7697">
<path d="M0 72C0 38.0589 0 21.0883 10.5442 10.5442C21.0883 0 38.0589 0 72 0H963C996.941 0 1013.91 0 1024.46 10.5442C1035 21.0883 1035 38.0589 1035 72V161C1035 194.941 1035 211.912 1024.46 222.456C1013.91 233 996.941 233 963 233H72C38.0589 233 21.0883 233 10.5442 222.456C0 211.912 0 194.941 0 161V72Z" fill="white"/>
</clipPath>
</defs>
</svg>

