<svg width="18" height="17" viewBox="0 0 18 17" fill="none" xmlns="http://www.w3.org/2000/svg">
<path d="M7.91027 0.691211C8.20962 -0.2301 9.51303 -0.2301 9.81238 0.691211L11.2187 5.01948C11.3526 5.4315 11.7366 5.71046 12.1698 5.71046H16.7208C17.6895 5.71046 18.0923 6.95008 17.3086 7.51948L13.6267 10.1945C13.2762 10.4491 13.1296 10.9005 13.2635 11.3125L14.6698 15.6408C14.9692 16.5621 13.9147 17.3282 13.131 16.7588L9.44911 14.0838C9.09863 13.8292 8.62403 13.8292 8.27354 14.0838L4.5917 16.7588C3.80798 17.3282 2.7535 16.5621 3.05285 15.6408L4.45919 11.3125C4.59307 10.9005 4.44641 10.4491 4.09592 10.1945L0.414077 7.51948C-0.369637 6.95008 0.0331378 5.71046 1.00186 5.71046H5.55287C5.9861 5.71046 6.37006 5.4315 6.50393 5.01948L7.91027 0.691211Z" fill="#F1F7FF"/>
</svg>
