<svg width="349" height="376" viewBox="0 0 349 376" fill="none" xmlns="http://www.w3.org/2000/svg">
<rect width="349" height="376" fill="#1E1E1E"/>
<rect width="349" height="376" fill="white"/>
<path d="M69.7969 136.066L81.2769 124.586C81.9956 123.876 82.2065 122.797 81.8159 121.868C81.4253 120.938 80.5151 120.329 79.5073 120.329H71.6792V112.5C71.6792 111.489 71.0698 110.579 70.1401 110.192C69.2104 109.801 68.1284 110.02 67.4213 110.731L55.9413 122.211C55.4726 122.68 55.2108 123.313 55.2108 123.98V133.27L41.0198 147.461C40.0394 148.441 40.0394 150.019 41.0198 151C41.5081 151.488 42.1487 151.73 42.7893 151.73C43.4299 151.73 44.0705 151.492 44.5588 151L58.7498 136.809H68.0389C68.6991 136.809 69.3397 136.547 69.8084 136.078L69.7969 136.066ZM60.2071 131.797V125.008L66.6876 118.527V122.816C66.6876 124.195 67.8087 125.316 69.1876 125.316H73.4767L66.9962 131.797H60.2071Z" fill="#0059ED"/>
<path d="M42.7888 184.996C62.5188 184.996 78.5698 168.945 78.5698 149.215C78.5698 147.024 78.3511 144.774 77.9214 142.505C77.6597 141.145 76.3511 140.255 74.9995 140.516C73.6401 140.778 72.7495 142.087 73.0112 143.438C73.3823 145.399 73.5698 147.337 73.5698 149.219C73.5698 166.188 59.7608 180 42.7888 180C25.8198 180 12.0078 166.191 12.0078 149.219C12.0078 132.25 25.8168 118.438 42.7888 118.438C44.6599 118.438 46.6091 118.63 48.5583 118.997C49.9099 119.259 51.2302 118.368 51.4802 117.009C51.7419 115.649 50.8513 114.337 49.4919 114.087C47.2224 113.657 44.9724 113.438 42.781 113.438C23.051 113.438 7 129.489 7 149.219C7 168.949 23.051 185 42.781 185L42.7888 184.996Z" fill="#0059ED"/>
<path d="M42.7889 132.207C43.6482 132.207 44.5272 132.348 45.3905 132.477C46.7499 132.688 48.0311 131.758 48.2421 130.387C48.4531 129.016 47.5233 127.747 46.1523 127.536C45.2108 127.387 44.0312 127.207 42.7929 127.207C30.6519 127.207 20.7809 137.079 20.7809 149.219C20.7809 161.36 30.652 171.231 42.7929 171.231C54.9338 171.231 64.8048 161.36 64.8048 149.219C64.8048 148.04 64.6447 146.981 64.4767 145.868L62.0079 146.239L59.547 146.7C59.6759 147.579 59.8088 148.419 59.8088 149.219C59.8088 158.598 52.1799 166.231 42.7968 166.231C33.4179 166.231 25.7848 158.602 25.7848 149.219C25.7848 139.84 33.4137 132.207 42.7968 132.207L42.7889 132.207Z" fill="#0059ED"/>
<path d="M59.0079 122.496L67.0079 117.996L71.5079 122.496L74.0079 124.996L70.5079 131.996H59.5079L59.0079 122.496Z" fill="#0059ED"/>
</svg>
