<svg width="230" height="230" viewBox="0 0 230 230" fill="none" xmlns="http://www.w3.org/2000/svg">
<path d="M115 230C178.513 230 230 178.513 230 115C230 51.4873 178.513 0 115 0C51.4873 0 0 51.4873 0 115C0 178.513 51.4873 230 115 230Z" fill="#257AFF"/>
<path d="M139.198 227.288C141.403 226.86 143.596 226.368 145.772 225.812C149.463 224.78 153.099 223.565 156.668 222.17C160.242 220.787 163.744 219.226 167.162 217.493C170.581 215.754 173.91 213.844 177.138 211.772C180.363 209.7 183.481 207.467 186.482 205.083C189.489 202.696 192.374 200.159 195.126 197.483C197.875 194.814 200.488 192.009 202.956 189.079C205.426 186.146 207.748 183.092 209.913 179.927C212.078 176.767 214.083 173.502 215.922 170.142C217.761 166.778 219.431 163.323 220.925 159.792C222.42 156.26 223.738 152.656 224.873 148.992C225.845 145.784 226.676 142.535 227.365 139.255L159.035 70.9355C153.265 65.1396 146.405 60.542 138.851 57.4072C131.297 54.2724 123.198 52.6624 115.019 52.6697C106.833 52.6608 98.7262 54.2699 91.1641 57.4046C83.602 60.5393 76.7341 65.1377 70.9551 70.9355C65.1616 76.7163 60.5652 83.583 57.4291 91.1425C54.293 98.702 52.6787 106.806 52.6787 114.99C52.6787 123.174 54.293 131.278 57.4291 138.838C60.5652 146.397 65.1616 153.264 70.9551 159.045L139.198 227.288Z" fill="#1C5DB5"/>
<path d="M115.009 52.679C130.937 52.679 146.865 58.7644 159.054 70.9448C164.848 76.7256 169.444 83.5923 172.58 91.1518C175.717 98.7113 177.331 106.815 177.331 114.999C177.331 123.184 175.717 131.287 172.58 138.847C169.444 146.407 164.848 153.273 159.054 159.054C153.274 164.847 146.407 169.444 138.848 172.58C131.288 175.716 123.184 177.33 115 177.33C106.816 177.33 98.7118 175.716 91.1523 172.58C83.5928 169.444 76.7261 164.847 70.9453 159.054C65.1519 153.273 60.5555 146.407 57.4193 138.847C54.2832 131.287 52.6689 123.184 52.6689 114.999C52.6689 106.815 54.2832 98.7113 57.4193 91.1518C60.5555 83.5923 65.1519 76.7256 70.9453 70.9448C76.7243 65.147 83.5922 60.5486 91.1543 57.4139C98.7164 54.2792 106.823 52.6701 115.009 52.679ZM143.376 95.8231C142.469 95.91 141.605 96.2523 140.885 96.8102L105.867 123.069L89.6424 106.854C86.1253 103.193 79.1966 110.112 82.867 113.629L102.034 132.796C102.865 133.581 103.942 134.056 105.082 134.138C106.223 134.22 107.357 133.905 108.292 133.246L146.625 104.496C149.845 102.148 147.861 95.8902 143.874 95.8327C143.712 95.8244 143.549 95.8244 143.386 95.8327L143.376 95.8231Z" fill="white"/>
</svg>
