<svg width="374" height="245" viewBox="0 0 374 245" fill="none" xmlns="http://www.w3.org/2000/svg">
<path d="M100.75 70.5703C100.75 66.152 97.1683 62.5703 92.75 62.5703H8.75C4.33172 62.5703 0.75 66.152 0.75 70.5703V132.57C0.75 160.185 23.1358 182.57 50.75 182.57C78.3642 182.57 100.75 160.185 100.75 132.57V70.5703Z" fill="white"/>
<path d="M120.75 70.5703C120.75 66.152 124.332 62.5703 128.75 62.5703H162.75C167.168 62.5703 170.75 66.152 170.75 70.5703V157.57C170.75 171.377 159.557 182.57 145.75 182.57C131.943 182.57 120.75 171.377 120.75 157.57V70.5703Z" fill="white"/>
<g filter="url(#filter0_d_2089_2725)">
<path fill-rule="evenodd" clip-rule="evenodd" d="M300.33 68.6806L297.82 66.2032C289.44 57.9323 275.854 57.9323 267.474 66.2032L264.964 68.6806H300.33ZM234.89 68.6806H202.815L203.68 67.8274C212.059 59.5565 225.646 59.5565 234.025 67.8274L234.89 68.6806Z" fill="#FFD600"/>
</g>
<g filter="url(#filter1_d_2089_2725)">
<path fill-rule="evenodd" clip-rule="evenodd" d="M303.848 72.1523H261.447L249.928 83.5224L238.408 72.1523H199.298L194.535 76.8536C191.852 79.5018 190.028 82.6768 189.063 86.0412H312.834C312.033 82.0796 310.077 78.3002 306.966 75.2293L303.848 72.1523Z" fill="#E9E201"/>
</g>
<g filter="url(#filter2_d_2089_2725)">
<path fill-rule="evenodd" clip-rule="evenodd" d="M313.239 89.5137H188.378C187.848 94.2979 188.966 99.2264 191.732 103.403H308.577C311.846 99.3626 313.4 94.4158 313.239 89.5137Z" fill="#E0E601"/>
</g>
<g filter="url(#filter3_d_2089_2725)">
<path fill-rule="evenodd" clip-rule="evenodd" d="M305.249 106.875H194.604L208.676 120.764H291.177L305.249 106.875Z" fill="#D6EB01"/>
</g>
<g filter="url(#filter4_d_2089_2725)">
<path fill-rule="evenodd" clip-rule="evenodd" d="M291.175 124.236H208.678L194.606 138.125H305.247L291.175 124.236Z" fill="#D2ED01"/>
</g>
<g filter="url(#filter5_d_2089_2725)">
<path fill-rule="evenodd" clip-rule="evenodd" d="M308.574 141.598H191.733C188.967 145.774 187.849 150.702 188.379 155.487H313.236C313.397 150.584 311.843 145.638 308.574 141.598Z" fill="#CEEF01"/>
</g>
<g filter="url(#filter6_d_2089_2725)">
<path fill-rule="evenodd" clip-rule="evenodd" d="M312.832 158.957H189.065C190.03 162.321 191.854 165.496 194.537 168.145L199.3 172.846H238.41L249.928 161.478L261.446 172.846H303.847L306.964 169.769C310.075 166.698 312.031 162.919 312.832 158.957Z" fill="#C0F601"/>
</g>
<g filter="url(#filter7_d_2089_2725)">
<path fill-rule="evenodd" clip-rule="evenodd" d="M300.328 176.318H264.963L267.473 178.796C275.852 187.067 289.438 187.067 297.818 178.796L300.328 176.318ZM234.891 176.318H202.817L203.682 177.171C212.061 185.442 225.647 185.442 234.027 177.171L234.891 176.318Z" fill="#ADFF00"/>
</g>
<defs>
<filter id="filter0_d_2089_2725" x="142.815" y="0" width="217.515" height="128.68" filterUnits="userSpaceOnUse" color-interpolation-filters="sRGB">
<feFlood flood-opacity="0" result="BackgroundImageFix"/>
<feColorMatrix in="SourceAlpha" type="matrix" values="0 0 0 0 0 0 0 0 0 0 0 0 0 0 0 0 0 0 127 0" result="hardAlpha"/>
<feOffset/>
<feGaussianBlur stdDeviation="30"/>
<feComposite in2="hardAlpha" operator="out"/>
<feColorMatrix type="matrix" values="0 0 0 0 1 0 0 0 0 0.839216 0 0 0 0 0 0 0 0 0.4 0"/>
<feBlend mode="normal" in2="BackgroundImageFix" result="effect1_dropShadow_2089_2725"/>
<feBlend mode="normal" in="SourceGraphic" in2="effect1_dropShadow_2089_2725" result="shape"/>
</filter>
<filter id="filter1_d_2089_2725" x="129.063" y="12.1523" width="243.771" height="133.889" filterUnits="userSpaceOnUse" color-interpolation-filters="sRGB">
<feFlood flood-opacity="0" result="BackgroundImageFix"/>
<feColorMatrix in="SourceAlpha" type="matrix" values="0 0 0 0 0 0 0 0 0 0 0 0 0 0 0 0 0 0 127 0" result="hardAlpha"/>
<feOffset/>
<feGaussianBlur stdDeviation="30"/>
<feComposite in2="hardAlpha" operator="out"/>
<feColorMatrix type="matrix" values="0 0 0 0 1 0 0 0 0 0.839216 0 0 0 0 0 0 0 0 0.4 0"/>
<feBlend mode="normal" in2="BackgroundImageFix" result="effect1_dropShadow_2089_2725"/>
<feBlend mode="normal" in="SourceGraphic" in2="effect1_dropShadow_2089_2725" result="shape"/>
</filter>
<filter id="filter2_d_2089_2725" x="128.25" y="29.5137" width="245" height="133.889" filterUnits="userSpaceOnUse" color-interpolation-filters="sRGB">
<feFlood flood-opacity="0" result="BackgroundImageFix"/>
<feColorMatrix in="SourceAlpha" type="matrix" values="0 0 0 0 0 0 0 0 0 0 0 0 0 0 0 0 0 0 127 0" result="hardAlpha"/>
<feOffset/>
<feGaussianBlur stdDeviation="30"/>
<feComposite in2="hardAlpha" operator="out"/>
<feColorMatrix type="matrix" values="0 0 0 0 1 0 0 0 0 0.839216 0 0 0 0 0 0 0 0 0.4 0"/>
<feBlend mode="normal" in2="BackgroundImageFix" result="effect1_dropShadow_2089_2725"/>
<feBlend mode="normal" in="SourceGraphic" in2="effect1_dropShadow_2089_2725" result="shape"/>
</filter>
<filter id="filter3_d_2089_2725" x="134.604" y="46.875" width="230.645" height="133.889" filterUnits="userSpaceOnUse" color-interpolation-filters="sRGB">
<feFlood flood-opacity="0" result="BackgroundImageFix"/>
<feColorMatrix in="SourceAlpha" type="matrix" values="0 0 0 0 0 0 0 0 0 0 0 0 0 0 0 0 0 0 127 0" result="hardAlpha"/>
<feOffset/>
<feGaussianBlur stdDeviation="30"/>
<feComposite in2="hardAlpha" operator="out"/>
<feColorMatrix type="matrix" values="0 0 0 0 1 0 0 0 0 0.839216 0 0 0 0 0 0 0 0 0.4 0"/>
<feBlend mode="normal" in2="BackgroundImageFix" result="effect1_dropShadow_2089_2725"/>
<feBlend mode="normal" in="SourceGraphic" in2="effect1_dropShadow_2089_2725" result="shape"/>
</filter>
<filter id="filter4_d_2089_2725" x="134.606" y="64.2363" width="230.641" height="133.889" filterUnits="userSpaceOnUse" color-interpolation-filters="sRGB">
<feFlood flood-opacity="0" result="BackgroundImageFix"/>
<feColorMatrix in="SourceAlpha" type="matrix" values="0 0 0 0 0 0 0 0 0 0 0 0 0 0 0 0 0 0 127 0" result="hardAlpha"/>
<feOffset/>
<feGaussianBlur stdDeviation="30"/>
<feComposite in2="hardAlpha" operator="out"/>
<feColorMatrix type="matrix" values="0 0 0 0 1 0 0 0 0 0.839216 0 0 0 0 0 0 0 0 0.4 0"/>
<feBlend mode="normal" in2="BackgroundImageFix" result="effect1_dropShadow_2089_2725"/>
<feBlend mode="normal" in="SourceGraphic" in2="effect1_dropShadow_2089_2725" result="shape"/>
</filter>
<filter id="filter5_d_2089_2725" x="128.251" y="81.5977" width="244.996" height="133.889" filterUnits="userSpaceOnUse" color-interpolation-filters="sRGB">
<feFlood flood-opacity="0" result="BackgroundImageFix"/>
<feColorMatrix in="SourceAlpha" type="matrix" values="0 0 0 0 0 0 0 0 0 0 0 0 0 0 0 0 0 0 127 0" result="hardAlpha"/>
<feOffset/>
<feGaussianBlur stdDeviation="30"/>
<feComposite in2="hardAlpha" operator="out"/>
<feColorMatrix type="matrix" values="0 0 0 0 1 0 0 0 0 0.839216 0 0 0 0 0 0 0 0 0.4 0"/>
<feBlend mode="normal" in2="BackgroundImageFix" result="effect1_dropShadow_2089_2725"/>
<feBlend mode="normal" in="SourceGraphic" in2="effect1_dropShadow_2089_2725" result="shape"/>
</filter>
<filter id="filter6_d_2089_2725" x="129.065" y="98.957" width="243.767" height="133.889" filterUnits="userSpaceOnUse" color-interpolation-filters="sRGB">
<feFlood flood-opacity="0" result="BackgroundImageFix"/>
<feColorMatrix in="SourceAlpha" type="matrix" values="0 0 0 0 0 0 0 0 0 0 0 0 0 0 0 0 0 0 127 0" result="hardAlpha"/>
<feOffset/>
<feGaussianBlur stdDeviation="30"/>
<feComposite in2="hardAlpha" operator="out"/>
<feColorMatrix type="matrix" values="0 0 0 0 1 0 0 0 0 0.839216 0 0 0 0 0 0 0 0 0.4 0"/>
<feBlend mode="normal" in2="BackgroundImageFix" result="effect1_dropShadow_2089_2725"/>
<feBlend mode="normal" in="SourceGraphic" in2="effect1_dropShadow_2089_2725" result="shape"/>
</filter>
<filter id="filter7_d_2089_2725" x="142.817" y="116.318" width="217.511" height="128.68" filterUnits="userSpaceOnUse" color-interpolation-filters="sRGB">
<feFlood flood-opacity="0" result="BackgroundImageFix"/>
<feColorMatrix in="SourceAlpha" type="matrix" values="0 0 0 0 0 0 0 0 0 0 0 0 0 0 0 0 0 0 127 0" result="hardAlpha"/>
<feOffset/>
<feGaussianBlur stdDeviation="30"/>
<feComposite in2="hardAlpha" operator="out"/>
<feColorMatrix type="matrix" values="0 0 0 0 1 0 0 0 0 0.839216 0 0 0 0 0 0 0 0 0.4 0"/>
<feBlend mode="normal" in2="BackgroundImageFix" result="effect1_dropShadow_2089_2725"/>
<feBlend mode="normal" in="SourceGraphic" in2="effect1_dropShadow_2089_2725" result="shape"/>
</filter>
</defs>
</svg>
