<svg width="92" height="97" viewBox="0 0 92 97" fill="none" xmlns="http://www.w3.org/2000/svg">
<path fill-rule="evenodd" clip-rule="evenodd" d="M22.7595 35.1757C20.9935 31.8986 19.9992 28.1967 19.9992 24.2779C19.9992 10.8696 31.6401 0 46 0V21.8581C47.9617 18.6822 50.6847 15.9575 54.0995 13.9823C65.7543 7.24085 81.0553 11.7828 88.2752 24.1269L69.1693 35.1782C72.9265 35.2751 76.6722 36.2578 80.1094 38.2167C91.8076 44.8834 95.5028 60.3321 88.3628 72.7221L69.2405 61.8243C71.0065 65.1014 72.0009 68.8033 72.0009 72.7221C72.0009 86.1304 60.3599 97 46 97V75.1419C44.0383 78.3178 41.3153 81.0425 37.9005 83.0177C26.2457 89.7591 10.9447 85.2172 3.72483 72.8731L22.8307 61.8218C19.0735 61.7249 15.3278 60.7422 11.8906 58.7833C0.192436 52.1166 -3.50275 36.6679 3.63717 24.2779L22.7595 35.1757ZM46.0137 48.4443C46.0091 48.4364 46.0046 48.4286 46 48.4207L46 48.4443C46.0046 48.4443 46.0091 48.4443 46.0137 48.4443ZM46 48.5557V48.5793L45.9863 48.5557L46 48.5557Z" fill="#02A44F"/>
</svg>
