<svg width="44" height="44" viewBox="0 0 44 44" fill="none" xmlns="http://www.w3.org/2000/svg">
<path d="M21.9917 20.5107C22.3726 20.5107 22.7383 20.6697 23.0076 20.9525L28.6561 26.8848C29.2169 27.4738 29.2169 28.4291 28.6561 29.0181C28.0953 29.607 27.1856 29.6071 26.6248 29.0181L21.9917 24.1517L17.3586 29.0181C16.7978 29.6069 15.8886 29.6069 15.3279 29.0181C14.767 28.4291 14.767 27.4738 15.3279 26.8848L20.9763 20.9525C21.2456 20.6697 21.6109 20.5107 21.9917 20.5107Z" fill="#FFA855"/>
<path d="M20.8733 35.4053V22.0228C20.8733 21.1877 21.3741 20.5107 21.9919 20.5107C22.6097 20.5107 23.1106 21.1877 23.1106 22.0228V35.4053C23.1106 36.2404 22.6097 36.9175 21.9919 36.9175C21.3741 36.9175 20.8733 36.2404 20.8733 35.4053Z" fill="#FFA855"/>
<path d="M17.1316 7.09581C19.1178 7.02278 21.095 7.40023 22.9141 8.19952C24.7331 8.9988 26.3469 10.1993 27.6342 11.7107C28.6698 12.9266 29.472 14.3185 30.0053 15.8162H30.7491C32.6985 15.8175 34.592 16.4665 36.1307 17.6611C37.6693 18.8556 38.7653 20.5276 39.2462 22.413C39.727 24.2985 39.5654 26.2904 38.7862 28.0738C38.007 29.8572 36.6547 31.3307 34.9432 32.262C34.2241 32.6532 33.3233 32.3887 32.9313 31.6711C32.5392 30.9534 32.8043 30.0544 33.5233 29.6631C34.6563 29.0466 35.5517 28.0709 36.0676 26.8903C36.5833 25.7098 36.6906 24.3913 36.3723 23.1432C36.054 21.8951 35.328 20.7882 34.3094 19.9975C33.3545 19.2561 32.1931 18.8324 30.9883 18.7816L30.7468 18.7764H28.9104C28.2345 18.7763 27.6442 18.32 27.4749 17.6669C27.0896 16.1795 26.3713 14.7983 25.3744 13.6279C24.3775 12.4575 23.1277 11.5278 21.719 10.9088C20.3102 10.2898 18.7787 9.99769 17.2405 10.0543C15.7024 10.1109 14.1971 10.5147 12.8379 11.2354C11.4786 11.9562 10.3008 12.9753 9.39281 14.2159C8.48488 15.4564 7.87041 16.8861 7.59583 18.3977C7.32126 19.9093 7.39345 21.4635 7.80728 22.9432C8.2211 24.4228 8.96566 25.7895 9.98484 26.9406C10.5272 27.5531 10.4694 28.4888 9.85566 29.0301C9.242 29.5711 8.305 29.5134 7.76267 28.9011C6.4465 27.4147 5.48514 25.6494 4.95078 23.7387C4.41645 21.8282 4.32285 19.8216 4.67735 17.8698C5.03188 15.918 5.82512 14.0716 6.99742 12.4698C8.16982 10.868 9.69116 9.55172 11.4464 8.621C13.2016 7.69035 15.1454 7.16884 17.1316 7.09581Z" fill="#FFA855"/>
<path d="M21.9917 20.5107C22.3726 20.5107 22.7383 20.6697 23.0076 20.9525L28.6561 26.8848C29.2169 27.4738 29.2169 28.4291 28.6561 29.0181C28.0953 29.607 27.1856 29.6071 26.6248 29.0181L21.9917 24.1517L17.3586 29.0181C16.7978 29.6069 15.8886 29.6069 15.3279 29.0181C14.767 28.4291 14.767 27.4738 15.3279 26.8848L20.9763 20.9525C21.2456 20.6697 21.6109 20.5107 21.9917 20.5107Z" fill="#FFA855"/>
</svg>
