<svg xmlns="http://www.w3.org/2000/svg" width="16" height="16" viewBox="0 0 16 16" fill="none">
  <path d="M8 0C12.4183 0 16 3.58172 16 8C16 12.4183 12.4183 16 8 16C3.58172 16 0 12.4183 0 8C2.2549e-07 3.58172 3.58172 2.25497e-07 8 0ZM8 3.2002C5.3536 3.2002 3.2002 5.35327 3.2002 8C3.20029 10.6467 5.35366 12.7998 8 12.7998C10.6466 12.7997 12.7997 10.6469 12.7998 8C12.7998 5.35332 10.6467 3.20029 8 3.2002Z" fill="#6F6F6F"/>
  <path d="M7.93579 6.29053C7.94073 6.29249 8.06699 6.34229 8.11548 6.34229C8.16523 6.34219 8.32642 6.31299 8.32642 6.31299C8.32642 6.31299 8.40063 6.55322 8.40063 6.60303C8.4008 6.65274 8.45058 6.70172 8.53345 6.73486C8.61588 6.7685 8.99524 6.85133 9.1604 6.71924C9.19819 6.6894 9.32021 6.76478 9.32544 6.76807C9.32544 6.76807 9.73886 6.85141 9.80493 6.90088C9.8714 6.95051 9.98664 6.98399 10.0198 7.03369C10.0531 7.08328 10.1671 7.23098 10.1838 7.28076C10.2008 7.33022 10.2834 7.51286 10.3 7.57861C10.3167 7.64468 10.3668 7.8104 10.4163 7.89307C10.4664 7.9769 10.7472 8.33935 10.8459 8.50439L11.1438 8.45459C11.1438 8.45459 11.1103 8.603 11.0774 8.65283C11.0445 8.7023 10.9452 8.83481 10.8958 8.90088C10.846 8.96693 10.78 9.06573 10.6809 9.14795C10.5821 9.23018 10.5814 9.31303 10.5325 9.37939C10.4837 9.44449 10.4182 9.58999 10.4163 9.59424C10.4163 9.59424 10.4498 9.92384 10.4661 9.99072C10.4823 10.0568 10.3499 10.2388 10.3499 10.2388L10.2014 10.3882L10.0022 10.6519L10.0178 10.8999C10.0083 10.9073 9.86465 11.018 9.78442 11.0815C9.70282 11.1471 9.71555 11.1969 9.64966 11.2632C9.58393 11.3289 9.3251 11.4448 9.25903 11.4614C9.1922 11.4781 8.82837 11.5278 8.82837 11.5278V11.3794L8.82153 11.2144C8.82153 11.2144 8.77075 11.0158 8.72095 10.9497C8.67129 10.8836 8.69316 10.7839 8.6106 10.7017C8.52808 10.6191 8.49733 10.5535 8.48071 10.5034C8.46431 10.4545 8.4975 10.3086 8.49829 10.3052C8.49829 10.3052 8.56502 10.1233 8.5979 10.0571C8.6311 9.99106 8.59888 9.89209 8.56567 9.82568C8.53259 9.75946 8.51695 9.5951 8.51685 9.54541C8.51685 9.49594 8.38369 9.41226 8.33423 9.36279C8.28491 9.31343 8.30096 9.24738 8.30103 9.18213C8.30103 9.11545 8.25171 8.96689 8.26782 8.85107C8.28441 8.73564 8.12005 8.81782 8.02075 8.85107C7.92148 8.88428 7.85571 8.81753 7.85571 8.71826C7.85571 8.619 7.67373 8.70234 7.55786 8.76807C7.4417 8.83403 7.30974 8.83353 7.177 8.8833C7.04952 8.93115 6.9839 8.84048 6.97974 8.83447C6.97974 8.83447 6.86348 8.73486 6.78149 8.68506C6.69852 8.63559 6.61546 8.53723 6.54907 8.45459C6.48338 8.37163 6.31809 8.12361 6.302 8.0249C6.28542 7.92543 6.30196 7.8589 6.302 7.74365C6.302 7.62812 6.30234 7.56167 6.3186 7.479C6.3352 7.39638 6.38406 7.297 6.43384 7.21436C6.4833 7.13169 6.66596 7.03271 6.71509 6.99951C6.76473 6.96643 6.88013 6.86753 6.88013 6.80127C6.88016 6.73532 6.9462 6.70245 6.97876 6.63623C7.0123 6.57016 7.12788 6.40512 7.27661 6.47119C7.27661 6.47119 7.40879 6.45459 7.45825 6.43799C7.50795 6.42129 7.64007 6.37249 7.70532 6.33936C7.77154 6.30623 7.93579 6.29053 7.93579 6.29053ZM3.72778 8.97412C3.7491 8.97965 3.7798 8.99471 3.82251 9.03271C3.88485 9.08692 3.92148 9.11538 4.00415 9.14893C4.08641 9.18247 4.11976 9.23098 4.21899 9.28076C4.31821 9.33053 4.28556 9.29754 4.41724 9.4458C4.54958 9.59405 4.53294 9.59448 4.56567 9.67725C4.59847 9.76009 4.64868 9.84192 4.68188 9.89209C4.71509 9.94156 4.81406 9.9751 4.86353 10.0083C4.91301 10.0415 4.99576 10.0737 5.04517 10.0737C5.09513 10.0741 5.24384 10.2225 5.32642 10.2388C5.40811 10.2557 5.40844 10.418 5.40845 10.4214L5.32642 10.6528L5.26001 10.8999L5.32642 11.0981C5.32642 11.0981 5.22677 11.181 5.16138 11.1812C5.10042 11.1812 5.0796 11.2199 5.01294 11.2017C4.38287 10.6133 3.92604 9.84364 3.72778 8.97412ZM11.0608 9.9585C11.0607 10.0081 11.0442 10.1406 11.0276 10.2065C11.0103 10.2726 10.9774 10.3883 10.9612 10.4536C10.9445 10.52 10.8619 10.6519 10.8127 10.6851C10.7633 10.7183 10.6802 10.8182 10.6311 10.8345C10.5819 10.8502 10.5481 10.7177 10.5647 10.6519C10.5814 10.587 10.6609 10.4123 10.6643 10.4048C10.6643 10.4048 10.6812 10.3052 10.6975 10.2388C10.7152 10.1731 10.9124 10.0903 10.9124 10.0903L11.0452 9.84229C11.0445 9.84195 11.0608 9.90937 11.0608 9.9585ZM8.89673 4.06201C8.97933 4.06211 9.07844 4.09814 9.12817 4.09814H9.37622L9.72192 4.06982C9.72192 4.06982 10.0198 4.18018 9.92017 4.24658C9.92017 4.24658 10.0367 4.31821 10.0862 4.36768C10.1326 4.41435 10.2528 4.32492 10.3215 4.28662C11.5577 5.06251 12.384 6.4347 12.384 7.99951C12.384 8.08353 12.3774 8.16554 12.3723 8.24854C12.3415 8.17061 12.2946 8.06861 12.2834 8.0249C12.267 7.95817 12.1672 7.72705 12.1672 7.72705C12.1612 7.7191 12.0662 7.59415 12.0022 7.56201C11.9365 7.52879 11.8866 7.44608 11.7708 7.38037C11.655 7.31405 11.6058 7.28081 11.5071 7.28076C11.4075 7.28076 11.3088 7.1486 11.1926 7.08252C11.0768 7.01679 11.0608 7.05029 11.0608 7.05029C11.0683 7.06153 11.1924 7.24915 11.1926 7.29736C11.1926 7.34683 11.3411 7.4292 11.4905 7.396C11.4905 7.396 11.5894 7.57787 11.6389 7.62744C11.6884 7.67691 11.6216 7.72739 11.5227 7.79346C11.4239 7.85886 11.44 7.8427 11.3899 7.89209C11.3403 7.94149 11.1763 8.02453 11.1262 8.05713C11.0768 8.08999 10.8785 8.18951 10.7795 8.09033C10.7311 8.04256 10.7457 7.94189 10.7131 7.87549C10.6796 7.80894 10.3335 7.29685 10.1682 7.06592C10.1394 7.02528 10.0689 6.89994 10.0198 6.86768C9.9717 6.83508 10.1263 6.8345 10.135 6.83447C10.135 6.83447 10.135 6.71856 10.1184 6.63623C10.1018 6.55514 10.1338 6.44225 10.135 6.43799C10.1273 6.4426 9.96943 6.53724 9.92017 6.56982C9.87104 6.60303 9.82085 6.50439 9.75513 6.42139C9.68908 6.33907 9.62295 6.23939 9.60669 6.15674C9.59078 6.07785 9.68114 6.04419 9.68872 6.0415L9.83716 5.9585C9.83716 5.9585 10.0191 5.92577 10.135 5.94189C10.2505 5.9585 10.4329 5.9751 10.4329 5.9751C10.4361 5.96715 10.4797 5.85777 10.4163 5.81006C10.3506 5.76065 10.2012 5.67848 10.135 5.69482C10.0693 5.71109 10.1679 5.61148 10.2502 5.54541L10.0667 5.51221C10.0634 5.51384 9.90022 5.59533 9.85083 5.61182C9.8014 5.62807 9.71507 5.66111 9.64868 5.74365C9.58311 5.82612 9.67477 5.94158 9.60962 5.9751C9.54405 6.00822 9.49912 6.02528 9.44946 6.0415C9.4009 6.0578 9.24795 6.04208 9.24243 6.0415C9.07167 6.0415 9.18145 6.19722 9.22583 6.25244L9.09302 6.09131L8.99536 5.85986C8.99355 5.85859 8.85397 5.76068 8.78833 5.72803C8.72343 5.6954 8.52598 5.58366 8.5188 5.57959L8.53247 5.72803L8.72388 5.92236L8.74146 5.92627L8.84106 6.05811L8.62134 6.07471V5.94385C8.41417 5.89375 8.46781 5.84263 8.44458 5.82666C8.39545 5.7938 8.28052 5.71045 8.28052 5.71045C8.28052 5.71045 8.08669 5.74362 8.03638 5.76025C7.98662 5.77684 7.97261 5.827 7.87427 5.85986C7.77466 5.89307 7.7294 5.94223 7.69653 5.9917C7.66365 6.04119 7.55586 6.19029 7.49048 6.25635C7.42402 6.32243 7.30161 6.30518 7.2522 6.30518C7.20346 6.30518 6.97392 6.24246 6.96411 6.23975V5.95947C6.96411 5.95947 6.996 5.80191 6.97974 5.75244L7.12427 5.72803L7.36646 5.67822L7.43677 5.62842L7.53833 5.49658C7.53696 5.49558 7.42525 5.41317 7.50708 5.29834C7.54685 5.24293 7.68908 5.23247 7.75513 5.18311C7.81832 5.13555 7.91293 5.10254 7.92017 5.1001C7.92017 5.1001 8.03615 5.00103 8.15161 4.88525C8.15161 4.88525 8.23448 4.83545 8.33325 4.80225C8.33325 4.80225 8.61359 5.04919 8.66431 5.05029C8.71279 5.05029 8.88659 4.94086 8.89575 4.93506C8.89575 4.93506 8.94501 4.78682 8.92896 4.73682C8.91281 4.6887 8.8346 4.53054 8.83032 4.52197C8.82884 4.52444 8.77942 4.60535 8.73071 4.67041C8.68324 4.73387 8.65115 4.81279 8.64868 4.81885C8.64868 4.81885 8.4169 4.80288 8.40063 4.75342C8.38366 4.70358 8.35113 4.62177 8.33423 4.57275C8.3177 4.52338 8.18547 4.525 8.08716 4.55811C7.99033 4.59027 8.09711 4.39085 8.10278 4.38037C8.10278 4.38037 8.20307 4.25537 8.2688 4.25537C8.3346 4.25519 8.48369 4.17111 8.54907 4.15479C8.61548 4.13818 8.81474 4.06201 8.89673 4.06201ZM4.50024 5.41357C4.50024 5.47964 4.41013 5.49561 4.50024 5.66162C4.61376 5.87329 4.51963 5.97321 4.51685 5.97607C4.51685 5.97607 4.23526 6.17432 4.18579 6.20752C4.13631 6.24088 4.00469 6.42155 4.08618 6.37256C4.16885 6.32309 4.26812 6.27363 4.18579 6.40576C4.10309 6.53825 3.95399 6.7525 3.92114 6.83545C3.88807 6.91856 3.72302 7.11612 3.7229 7.21533C3.7229 7.28969 3.6857 7.4198 3.67407 7.51514V7.65674C3.66716 7.73205 3.64099 7.8407 3.61938 7.89307C3.64174 6.96411 3.95466 6.108 4.47095 5.40771C4.48789 5.40941 4.50024 5.41357 4.50024 5.41357ZM7.44946 4.78564L7.6438 5.00049L7.51489 5.1001L7.17114 5.16553V4.99072L7.01196 5.16553L6.94653 5.06689L7.01196 4.91748L7.17114 4.98193V4.68701L7.32349 4.604L7.44946 4.78564ZM6.31763 4.04248C6.31763 4.04248 6.20171 4.04218 5.98657 4.27393C5.7728 4.50458 5.82167 4.43933 5.77271 4.50439C5.72324 4.57012 5.73912 4.58743 5.62329 4.67041C5.5081 4.75274 5.45825 4.85205 5.45825 4.85205L5.27661 4.91846L5.12817 4.85205C5.12817 4.85205 4.99542 4.9018 5.01196 4.83545C5.01671 4.81783 5.02306 4.7991 5.03052 4.77979C5.43461 4.40685 5.90863 4.10994 6.43091 3.90869C6.37946 3.97464 6.31763 4.04248 6.31763 4.04248Z" fill="#6F6F6F"/>
</svg>

