<svg width="13" height="13" viewBox="0 0 13 13" fill="none" xmlns="http://www.w3.org/2000/svg">
<path d="M11.6289 2.66602H4.77344C4.54873 2.66602 4.36719 2.84756 4.36719 3.07227V6.06836H1.37109C1.14639 6.06836 0.964844 6.2499 0.964844 6.47461V9.92773C0.964844 10.1524 1.14639 10.334 1.37109 10.334H8.22656C8.45127 10.334 8.63281 10.1524 8.63281 9.92773V6.93164H11.6289C11.8536 6.93164 12.0352 6.7501 12.0352 6.52539V3.07227C12.0352 2.84756 11.8536 2.66602 11.6289 2.66602ZM7.76953 9.4707H5.23047V6.93164H7.76953V9.4707ZM11.1719 6.06836H8.63281V3.5293H11.1719V6.06836Z" fill="#101214"/>
</svg>
