<svg width="12" height="12" viewBox="0 0 12 12" fill="none" xmlns="http://www.w3.org/2000/svg">
<path fill-rule="evenodd" clip-rule="evenodd" d="M3.438 7.56197C3.7335 8.04632 4.16025 8.43698 4.66876 8.68864C5.17727 8.9403 5.7467 9.04265 6.31102 8.98382C6.87534 8.92499 7.41141 8.70739 7.85708 8.35626C8.30275 8.00513 8.63975 7.53485 8.829 6.99997H9.874C9.68225 7.74113 9.28191 8.41173 8.72048 8.93221C8.15905 9.45268 7.4601 9.80117 6.70656 9.93634C5.95302 10.0715 5.17653 9.98768 4.4692 9.6948C3.76187 9.40192 3.15341 8.91228 2.716 8.28397L1.5 9.49997V6.49997H4.5L3.438 7.56197ZM8.5625 4.43747C8.26685 3.95305 7.83994 3.56236 7.33128 3.3107C6.82262 3.05904 6.25304 2.95671 5.68859 3.01559C5.12414 3.07447 4.58795 3.29214 4.14217 3.64336C3.6964 3.99458 3.35931 4.46497 3.17 4.99997H2.125C2.31668 4.25852 2.71705 3.58763 3.2786 3.06691C3.84014 2.54618 4.53929 2.19749 5.29307 2.06221C6.04685 1.92693 6.82362 2.01074 7.5312 2.3037C8.23877 2.59665 8.84745 3.08645 9.285 3.71497L10.5 2.49997V5.49997H7.5L8.5625 4.43747Z" fill="#005FF2" stroke="#005FF2" stroke-width="0.2"/>
</svg>
