<svg width="13" height="13" viewBox="0 0 13 13" fill="none" xmlns="http://www.w3.org/2000/svg">
<path fill-rule="evenodd" clip-rule="evenodd" d="M6.5 1.625C6.58114 1.62505 6.66123 1.64333 6.73436 1.67849C6.80749 1.71365 6.87179 1.76478 6.9225 1.82812L9.08917 4.53646C9.13628 4.59164 9.17183 4.65572 9.19371 4.7249C9.21558 4.79408 9.22333 4.86695 9.2165 4.93918C9.20968 5.01142 9.1884 5.08154 9.15395 5.1454C9.1195 5.20925 9.07257 5.26554 9.01595 5.3109C8.95933 5.35627 8.89417 5.38981 8.82434 5.40951C8.75451 5.42921 8.68143 5.43469 8.60945 5.42561C8.53746 5.41652 8.46803 5.39307 8.40529 5.35665C8.34254 5.32022 8.28775 5.27155 8.24417 5.21354L7.04167 3.71042V7.58333C7.04167 7.72699 6.9846 7.86477 6.88302 7.96635C6.78143 8.06793 6.64366 8.125 6.5 8.125C6.35634 8.125 6.21857 8.06793 6.11698 7.96635C6.0154 7.86477 5.95833 7.72699 5.95833 7.58333V3.71042L4.75583 5.21408C4.71225 5.27209 4.65746 5.32076 4.59472 5.35719C4.53197 5.39362 4.46254 5.41707 4.39055 5.42615C4.31857 5.43523 4.24549 5.42976 4.17566 5.41005C4.10583 5.39035 4.04067 5.35682 3.98405 5.31145C3.92743 5.26608 3.8805 5.20979 3.84605 5.14594C3.8116 5.08208 3.79032 5.01196 3.7835 4.93972C3.77667 4.86749 3.78442 4.79462 3.80629 4.72544C3.82817 4.65626 3.86372 4.59218 3.91083 4.537L6.0775 1.82867C6.12816 1.76523 6.19243 1.71399 6.26556 1.67873C6.33869 1.64348 6.41882 1.62512 6.5 1.625ZM4.875 7.58333V7.04167H2.70833C2.42102 7.04167 2.14547 7.1558 1.9423 7.35897C1.73914 7.56213 1.625 7.83768 1.625 8.125V10.2917C1.625 10.579 1.73914 10.8545 1.9423 11.0577C2.14547 11.2609 2.42102 11.375 2.70833 11.375H10.2917C10.579 11.375 10.8545 11.2609 11.0577 11.0577C11.2609 10.8545 11.375 10.579 11.375 10.2917V8.125C11.375 7.83768 11.2609 7.56213 11.0577 7.35897C10.8545 7.1558 10.579 7.04167 10.2917 7.04167H8.125V7.58333C8.125 8.01431 7.9538 8.42764 7.64905 8.73238C7.3443 9.03713 6.93098 9.20833 6.5 9.20833C6.06902 9.20833 5.6557 9.03713 5.35095 8.73238C5.0462 8.42764 4.875 8.01431 4.875 7.58333ZM9.20833 8.66667C9.06467 8.66667 8.9269 8.72373 8.82532 8.82532C8.72373 8.9269 8.66667 9.06467 8.66667 9.20833C8.66667 9.35199 8.72373 9.48977 8.82532 9.59135C8.9269 9.69293 9.06467 9.75 9.20833 9.75H9.21375C9.35741 9.75 9.49518 9.69293 9.59677 9.59135C9.69835 9.48977 9.75542 9.35199 9.75542 9.20833C9.75542 9.06467 9.69835 8.9269 9.59677 8.82532C9.49518 8.72373 9.35741 8.66667 9.21375 8.66667H9.20833Z" fill="#101214"/>
</svg>
