<svg width="13" height="13" viewBox="0 0 13 13" fill="none" xmlns="http://www.w3.org/2000/svg">
<path d="M10.1393 2.16667H2.9081C2.81489 2.1623 2.72174 2.17636 2.63397 2.20804C2.54621 2.23972 2.46555 2.2884 2.39662 2.35129C2.32769 2.41419 2.27184 2.49005 2.23227 2.57456C2.1927 2.65906 2.17019 2.75054 2.16602 2.84375V10.0913C2.17148 10.2863 2.25141 10.4719 2.38941 10.6099C2.52742 10.7479 2.71301 10.8279 2.9081 10.8333H10.1393C10.329 10.8249 10.5078 10.7425 10.6374 10.6037C10.767 10.465 10.8371 10.281 10.8327 10.0913V2.84375C10.8342 2.75303 10.8172 2.66294 10.7827 2.57902C10.7482 2.49509 10.6969 2.4191 10.632 2.3557C10.5671 2.29231 10.4899 2.24284 10.4052 2.21033C10.3205 2.17783 10.23 2.16297 10.1393 2.16667ZM4.87435 9.3925H3.61227V5.53042H4.87435V9.3925ZM4.2731 4.94542C4.18503 4.94849 4.09727 4.93331 4.01535 4.90085C3.93343 4.86838 3.8591 4.81932 3.79704 4.75675C3.73498 4.69419 3.68653 4.61946 3.65474 4.53728C3.62294 4.45509 3.60848 4.36721 3.61227 4.27917C3.60837 4.19018 3.62312 4.10135 3.65557 4.01839C3.68802 3.93544 3.73745 3.86018 3.8007 3.79744C3.86394 3.73471 3.9396 3.68589 4.02281 3.65411C4.10603 3.62234 4.19497 3.60831 4.28393 3.61292C4.372 3.60985 4.45976 3.62503 4.54168 3.6575C4.62361 3.68996 4.69793 3.73902 4.75999 3.80159C4.82205 3.86416 4.8705 3.93888 4.9023 4.02107C4.93409 4.10325 4.94855 4.19113 4.94477 4.27917C4.94866 4.36816 4.93391 4.45699 4.90146 4.53995C4.86901 4.62291 4.81958 4.69817 4.75634 4.7609C4.69309 4.82363 4.61744 4.87245 4.53422 4.90423C4.451 4.936 4.36206 4.95004 4.2731 4.94542ZM9.39185 9.3925H8.12435V7.28C8.12435 6.77625 7.9456 6.42959 7.49602 6.42959C7.35635 6.4308 7.22048 6.47518 7.10702 6.55663C6.99356 6.63809 6.90807 6.75264 6.86227 6.88459C6.82659 6.98339 6.81184 7.08853 6.81893 7.19334V9.3925H5.5731V5.53042H6.81893V6.07209C6.92969 5.8686 7.09455 5.6997 7.29529 5.58403C7.49603 5.46837 7.72484 5.41045 7.95643 5.41667C8.77435 5.41667 9.39185 5.95834 9.39185 7.11209V9.3925Z" fill="#101214"/>
</svg>
