<svg width="13" height="13" viewBox="0 0 13 13" fill="none" xmlns="http://www.w3.org/2000/svg">
<path d="M10.2922 8.80207C10.3827 8.80214 10.4707 8.83245 10.542 8.88819C10.6133 8.94393 10.664 9.02191 10.686 9.10974L10.8436 9.7397L11.4741 9.89732C11.562 9.91934 11.6399 9.97007 11.6956 10.0415C11.7514 10.1129 11.7816 10.2008 11.7816 10.2914C11.7816 10.3819 11.7514 10.4699 11.6956 10.5413C11.6399 10.6127 11.562 10.6634 11.4741 10.6854L10.8436 10.8431L10.6865 11.4736C10.6647 11.5617 10.614 11.6399 10.5426 11.6958C10.4711 11.7518 10.383 11.7821 10.2922 11.7821C10.2015 11.7821 10.1133 11.7518 10.0418 11.6958C9.97038 11.6399 9.91969 11.5617 9.89787 11.4736L9.74079 10.8431L9.11029 10.686C9.0222 10.6642 8.94395 10.6135 8.88803 10.542C8.8321 10.4705 8.80171 10.3824 8.80171 10.2917C8.80171 10.2009 8.8321 10.1128 8.88803 10.0413C8.94395 9.96982 9.0222 9.91914 9.11029 9.89732L9.74025 9.74024L9.89787 9.10974C9.91987 9.02182 9.97063 8.94377 10.0421 8.88803C10.1135 8.83228 10.2016 8.80202 10.2922 8.80207ZM2.22354 1.35795C2.38496 0.886153 3.08208 0.901862 3.20829 1.40507L3.36862 2.04857L4.01212 2.20944C4.53212 2.33944 4.53212 3.07774 4.01212 3.2072L3.36862 3.36807L3.20829 4.01157C3.07829 4.53157 2.34 4.53157 2.21 4.01157L2.04912 3.36807L1.40562 3.2072C0.885625 3.0772 0.885625 2.33944 1.40562 2.20944L2.04912 2.04857L2.21 1.40507L2.22354 1.35795ZM2.70887 2.59836C2.6777 2.64011 2.64067 2.67715 2.59892 2.70832C2.64067 2.73949 2.6777 2.77653 2.70887 2.81828C2.74005 2.77653 2.77708 2.73949 2.81883 2.70832C2.77704 2.67698 2.74001 2.6403 2.70887 2.59836ZM9.06696 2.01878C9.199 1.8868 9.37806 1.81266 9.56475 1.81266C9.75144 1.81266 9.93049 1.8868 10.0625 2.01878L10.9817 2.93799C11.1137 3.07003 11.1879 3.24909 11.1879 3.43578C11.1879 3.62247 11.1137 3.80152 10.9817 3.93357L9.94771 4.96815L8.03237 3.05282L9.06696 2.01878ZM4.77696 10.1389C4.73917 10.1765 4.69112 10.2021 4.63883 10.2126L2.7235 10.5955C2.67981 10.6042 2.63465 10.602 2.59202 10.5891C2.54939 10.5762 2.51061 10.5529 2.47911 10.5214C2.44761 10.4899 2.42437 10.4511 2.41144 10.4085C2.39852 10.3659 2.3963 10.3207 2.405 10.277L2.78796 8.36224C2.79843 8.30969 2.82426 8.26144 2.86217 8.22357L7.64942 3.43578L9.56475 5.35111L4.77696 10.1389Z" fill="#101214"/>
</svg>
